<?xml version="1.0" encoding="UTF-8"?>
<svg id="Layer_1" xmlns="http://www.w3.org/2000/svg" version="1.1" viewBox="0 0 512 458.03">
  <!-- Generator: Adobe Illustrator 29.7.1, SVG Export Plug-In . SVG Version: 2.1.1 Build 8)  -->
  <defs>
    <style>
      .st0 {
        opacity: .95;
      }

      .st0, .st1 {
        fill: #187cab;
        isolation: isolate;
      }
    </style>
  </defs>
  <rect class="st1" x="7.32" y="8.77" width="448.73" height="102.08" rx="17.01" ry="17.01"/>
  <path class="st1" d="M326.48,178.91H24.34c-9.4,0-17.01,7.62-17.01,17.01v68.05c0,9.4,7.62,17.01,17.01,17.01h217.47c9.56-46.37,41.84-84.43,84.67-102.08Z"/>
  <path class="st1" d="M244.47,349.05H24.34c-9.4,0-17.01,7.62-17.01,17.01v68.05c0,9.4,7.62,17.01,17.01,17.01h355.97c-64.45,0-118.79-43.13-135.84-102.08Z"/>
  <path class="st0" d="M444.89,205.46c-5.68-3.52-11.66-6.6-17.9-9.17-14.39-5.93-30.15-9.22-46.68-9.22s-32.29,3.29-46.68,9.22c-37.14,15.3-65.13,48.3-73.42,88.51-1.66,8.04-2.53,16.36-2.53,24.89,0,11.84,1.71,23.28,4.85,34.11,14.78,51.12,61.9,88.51,117.78,88.51,24.17,0,46.69-7.02,65.68-19.09,34.22-21.76,56.95-59.98,56.95-103.53s-23.21-82.61-58.05-104.24ZM359.35,362.11v-100.62l31.09,23.32,35.99,26.99-42.69,32.02-24.39,18.29Z"/>
</svg>