<svg id="Delete" xmlns="http://www.w3.org/2000/svg" xmlns:xlink="http://www.w3.org/1999/xlink" width="20" height="24" viewBox="0 0 20 24">
  <defs>
    <clipPath id="clip-path">
      <rect id="Rectangle_200" data-name="Rectangle 200" width="20" height="24" transform="translate(0)" fill="#187cab"/>
    </clipPath>
  </defs>
  <g id="Group_304" data-name="Group 304" transform="translate(0 0)">
    <g id="Group_303" data-name="Group 303" transform="translate(0 0)" clip-path="url(#clip-path)">
      <path id="Path_96" data-name="Path 96" d="M237.965,337.7a.565.565,0,0,0-.567.562v10.629a.567.567,0,0,0,1.134,0V338.265a.565.565,0,0,0-.567-.562Zm0,0" transform="translate(-231.425 -329.003)" fill="red"/>
      <path id="Path_97" data-name="Path 97" d="M134.607,190.148V204a3.089,3.089,0,0,0,.832,2.14,2.8,2.8,0,0,0,2.026.869H148.19a2.8,2.8,0,0,0,2.026-.869,3.089,3.089,0,0,0,.832-2.14V190.148a2.146,2.146,0,0,0-.556-4.225h-2.9v-.7a2.2,2.2,0,0,0-.654-1.576,2.237,2.237,0,0,0-1.591-.645H140.31a2.236,2.236,0,0,0-1.591.645,2.2,2.2,0,0,0-.654,1.576v.7h-2.9a2.146,2.146,0,0,0-.556,4.225Zm13.584,15.739H137.464A1.787,1.787,0,0,1,135.741,204V190.2h14.173V204a1.787,1.787,0,0,1-1.723,1.884ZM139.2,185.22a1.079,1.079,0,0,1,.322-.781,1.1,1.1,0,0,1,.789-.315h5.034a1.1,1.1,0,0,1,.79.315,1.078,1.078,0,0,1,.322.781v.7H139.2Zm-4.036,1.828h15.33a1.012,1.012,0,1,1,0,2.024h-15.33a1.012,1.012,0,1,1,0-2.024Zm0,0" transform="translate(-132.942 -182.999)" fill="red"/>
    </g>
  </g>
  <path id="Path_95" data-name="Path 95" d="M355.94,337.7a.542.542,0,0,0-.542.542v10.249a.542.542,0,0,0,1.085,0V338.245a.542.542,0,0,0-.542-.542Zm0,0" transform="translate(-342.701 -328.456)" fill="red"/>
  <path id="Path_98" data-name="Path 98" d="M296.94,337.7a.542.542,0,0,0-.542.542v10.249a.542.542,0,0,0,1.085,0V338.245a.542.542,0,0,0-.542-.542Zm0,0" transform="translate(-287.055 -328.456)" fill="red"/>
</svg>
