<svg id="Edit" xmlns="http://www.w3.org/2000/svg" xmlns:xlink="http://www.w3.org/1999/xlink" width="24" height="23" viewBox="0 0 24 23">
  <defs>
    <clipPath id="clip-path">
      <rect id="Rectangle_199" data-name="Rectangle 199" width="24" height="23" transform="translate(0.209)" fill="#187cab"/>
    </clipPath>
  </defs>
  <g id="Edit-2" data-name="Edit" transform="translate(-0.209)">
    <g id="Group_300" data-name="Group 300" transform="translate(0 0)" clip-path="url(#clip-path)">
      <path id="Path_93" data-name="Path 93" d="M126.333,247.572a.575.575,0,0,0-.576.576v5.111a1.729,1.729,0,0,1-1.727,1.727H107.878a1.729,1.729,0,0,1-1.727-1.727v-15a1.729,1.729,0,0,1,1.727-1.727h5.111a.576.576,0,0,0,0-1.151h-5.111A2.882,2.882,0,0,0,105,238.257v15a2.881,2.881,0,0,0,2.878,2.878h16.153a2.881,2.881,0,0,0,2.878-2.878v-5.111a.576.576,0,0,0-.576-.576Zm0,0" transform="translate(-104.4 -233.109)" fill="#187cab"/>
      <path id="Path_94" data-name="Path 94" d="M228.5,197.28a2.59,2.59,0,0,0-3.663,0l-10.27,10.27a.577.577,0,0,0-.148.253l-1.351,4.876a.576.576,0,0,0,.708.709l4.876-1.351a.576.576,0,0,0,.254-.148l10.27-10.27a2.593,2.593,0,0,0,0-3.664Zm-12.679,10.644,8.405-8.406,2.711,2.711-8.406,8.406Zm-.542,1.087,2.166,2.166-3,.83Zm13.082-8.206-.61.61-2.711-2.711.611-.611a1.439,1.439,0,0,1,2.035,0l.676.675a1.441,1.441,0,0,1,0,2.036Zm0,0" transform="translate(-206.221 -196.491)" fill="#187cab"/>
    </g>
  </g>
</svg>
