<?xml version="1.0" encoding="UTF-8"?>
<svg id="Layer_1" xmlns="http://www.w3.org/2000/svg" version="1.1" viewBox="0 0 168.75 168.75">
  <!-- Generator: Adobe Illustrator 29.7.1, SVG Export Plug-In . SVG Version: 2.1.1 Build 8)  -->
  <defs>
    <style>
      .st0 {
        fill: #187cab;
      }
    </style>
  </defs>
  <path class="st0" d="M91.5,0l38.09,41.74.91,40.66-8.25-.74v-29.22h-15.38c-11.1,0-23.62-9.66-23.62-21.35V8.24H29.62c-2.92,0-10.2,6.97-9.38,10.86l.17,115.95c1.39,4.29,5.07,7.42,9.38,8.61l41.74.13,3.46,8.29H28.88c-6.62,0-16.38-10.14-16.81-16.92l-.09-116.83C13.15,8.65,20.1,2.29,29.25,0h62.25ZM120,44.2l-28.5-31.46v18.35c0,2.42,2.8,7.72,4.88,9.36s8.13,3.75,10.5,3.75h13.12Z"/>
  <path class="st0" d="M123,168.56c-2.18.25-6.85.27-9,0-45.64-5.74-43.29-74.89,3.34-76.44,48.94-1.63,53.38,71.06,5.66,76.44ZM119.82,108.05c-5.44-1.48-10.63-.25-8.12,6.49-3.9,3.55-7.4-2.15-10.23.3-6.4,5.53,2.42,8.07-.22,12.7-.86,1.51-3.44.86-4.52,1.66-1.68,1.25-.56,6.63.74,8.29l5.24-.4,1.93,3.75-2.43,4.87,6.04,4.73,3.99-3.54,4.62,1.94.82,3.68c1.48,2.05,6.05-.08,8.22-.54-.98-6.88,2.42-9.01,7.98-5.14,4.22-2.24,7.48-7.33,1.45-9.72-.09-6.04,3.76-4.3,5.7-5.6,1.67-1.12.23-6.66-.74-8.32-1.82-1.28-5,.51-5.22.36-.17-.12-1.95-3.42-2-3.63-.48-2.06,3.8-3.27.85-6.86-5.6-6.83-7.67.76-8.41.86l-4.7-.86-1-5.01Z"/>
  <path class="st0" d="M47.62,69.67c-8.95-.34-5.29-7.49-3-7.49h53.25c2.48,2.28,2.44,5.25,0,7.49h-50.25Z"/>
  <path class="st0" d="M96,86.16c.37,1.75-.23,1.2-.96,1.67-1.58,1.01-7.32,5.11-8.07,5.41-2.38.95-36.35.89-40.86.4-6.32-.68-5.47-7.52,1.52-8.24,10.76-1.11,32.58-.91,43.53-.03,1.66.13,3.21.63,4.85.79Z"/>
  <path class="st0" d="M74.25,109.37l-2.28,8.21c-8.04-.56-17.24.85-25.14.08-7.8-.76-4.27-8.29-1.45-8.29h28.88Z"/>
  <path class="st0" d="M117.59,120.79c13.03-1.58,14.61,18.37,1.95,19.26-12.26.86-14.1-17.79-1.95-19.26Z"/>
</svg>