<?xml version="1.0" encoding="utf-8"?>
<!-- Generator: Adobe Illustrator 27.7.0, SVG Export Plug-In . SVG Version: 6.00 Build 0)  -->
<svg version="1.1" id="Layer_1" xmlns="http://www.w3.org/2000/svg" xmlns:xlink="http://www.w3.org/1999/xlink" x="0px" y="0px"
	 viewBox="0 0 530.2 530.2" style="enable-background:new 0 0 530.2 530.2;" xml:space="preserve">
<style type="text/css">
	.st0{fill:#FF0000;}
</style>
<path class="st0" d="M462.2,32.8L265.1,229.9L68,32.8c-10.1-9.3-25.9-8.6-35.2,1.5c-8.7,9.5-8.7,24.2,0,33.7l197,197.1L32.7,462.2
	c-10,9.5-10.4,25.3-0.8,35.3c9.5,10,25.3,10.4,35.3,0.8c0.3-0.3,0.6-0.5,0.8-0.8l197.1-197l197.1,197.1c10.2,9.3,25.9,8.6,35.2-1.6
	c8.7-9.5,8.7-24.2,0-33.7l-197-197.1L497.5,68c10-9.5,10.4-25.3,0.8-35.3c-9.5-10-25.3-10.4-35.3-0.8
	C462.8,32.2,462.5,32.4,462.2,32.8L462.2,32.8z"/>
</svg>
