<svg xmlns="http://www.w3.org/2000/svg" xmlns:xlink="http://www.w3.org/1999/xlink" width="44" height="44" viewBox="0 0 44 44">
  <defs>
    <clipPath id="clip-path">
      <path id="Path_1" data-name="Path 1" d="M0,0H44V44H0Z" transform="translate(-9 -9)" fill="#fff" stroke="#707070" stroke-width="1"/>
    </clipPath>
  </defs>
  <g id="icon-mapping" transform="translate(9 9)" clip-path="url(#clip-path)">
    <g id="File_Approve" transform="translate(-13.4 -10.467)">
      <g id="Group_3968" data-name="Group 3968">
        <path id="Path_847" data-name="Path 847" d="M38.133,35.2a1.466,1.466,0,0,0-1.467,1.467v5.867h-26.4V4.4H24.933V14.667A1.466,1.466,0,0,0,26.4,16.133H36.667V22A1.467,1.467,0,0,0,39.6,22V14.809c0-.048.029-.092.029-.142a1.464,1.464,0,0,0-.617-1.2L27.437,1.9a1.47,1.47,0,0,0-.428-.286,1.085,1.085,0,0,0-.142-.05,1.388,1.388,0,0,0-.371-.073c-.032,0-.063-.021-.1-.021H8.8A1.466,1.466,0,0,0,7.333,2.933V44A1.466,1.466,0,0,0,8.8,45.467H38.133A1.466,1.466,0,0,0,39.6,44V36.667A1.466,1.466,0,0,0,38.133,35.2Zm-10.267-22V6.474L34.593,13.2Z" fill="#fff"/>
        <path id="Path_848" data-name="Path 848" d="M45.071,22.465A1.467,1.467,0,0,0,43,22.4L28.324,36.124,21.535,29.77a1.467,1.467,0,1,0-2,2.141L27.323,39.2a1.469,1.469,0,0,0,2.006,0L45,24.536A1.466,1.466,0,0,0,45.071,22.465Z" fill="#fff"/>
      </g>
    </g>
  </g>
</svg>
