<svg id="Tasks" xmlns="http://www.w3.org/2000/svg" width="25.109" height="24.982" viewBox="0 0 25.109 24.982">
  <g id="Group_281" data-name="Group 281">
    <path id="Path_29" data-name="Path 29" d="M58.122,53.8c-2.257-1.952-4.346-4.705-4.346-11.581a7.222,7.222,0,0,0-14.444,0c0,6.882-2.087,9.633-4.347,11.583A2.86,2.86,0,0,0,34,55.96a.822.822,0,0,0,.821.821h7.8a4.021,4.021,0,0,0,7.874,0h7.8a.822.822,0,0,0,.821-.821,2.844,2.844,0,0,0-.987-2.158ZM46.554,58.339a2.383,2.383,0,0,1-2.232-1.558h4.465a2.383,2.383,0,0,1-2.232,1.558Zm-10.588-3.2a1.17,1.17,0,0,1,.1-.093c3.444-2.974,4.913-6.809,4.913-12.825a5.579,5.579,0,0,1,11.158,0c0,6.01,1.47,9.846,4.916,12.825a1.29,1.29,0,0,1,.1.092Zm0,0" transform="translate(-34 -35)" fill="#187cab"/>
  </g>
</svg>
