<svg id="dashboard" xmlns="http://www.w3.org/2000/svg" width="26" height="26" viewBox="0 0 26 26">
  <path id="Path_31" data-name="Path 31" d="M37.852,43H33.519a.813.813,0,0,1-.813-.812V35.147a.271.271,0,0,0-.271-.271H27.561a.271.271,0,0,0-.271.271v7.042a.813.813,0,0,1-.812.812H22.144a1.9,1.9,0,0,1-1.9-1.9V31.084h-1.9A1.356,1.356,0,0,1,17,29.73a1.374,1.374,0,0,1,.4-.964l12.037-11.54a.812.812,0,0,1,1.124,0L42.585,28.753A1.388,1.388,0,0,1,43,29.73a1.356,1.356,0,0,1-1.354,1.354h-1.9V41.1a1.9,1.9,0,0,1-1.9,1.9Zm-3.521-1.625h3.521a.274.274,0,0,0,.271-.271V30.272a.813.813,0,0,1,.812-.812h2.038L30,18.939,19.023,29.459h2.038a.813.813,0,0,1,.812.812V41.1a.274.274,0,0,0,.271.271h3.521V35.147a1.9,1.9,0,0,1,1.9-1.9h4.875a1.9,1.9,0,0,1,1.9,1.9Zm0,0" transform="translate(-16.998 -17)" fill="#fff"/>
</svg>
