<svg xmlns="http://www.w3.org/2000/svg" width="29.385" height="29.385" viewBox="0 0 29.385 29.385">
  <g id="icon-setup" transform="translate(0.5 0.5)">
    <path id="Path_72" data-name="Path 72" d="M130.925,116.039h-2.657a1.02,1.02,0,0,1-.721-1.741l1.879-1.879a1.465,1.465,0,0,0,0-2.066l-2.394-2.394a1.5,1.5,0,0,0-2.066,0l-1.879,1.879a1.02,1.02,0,0,1-1.741-.721v-2.657a1.461,1.461,0,0,0-1.46-1.461H116.5a1.461,1.461,0,0,0-1.46,1.461v2.657a1.02,1.02,0,0,1-1.741.721l-1.879-1.879a1.5,1.5,0,0,0-2.066,0l-2.394,2.394a1.465,1.465,0,0,0,0,2.066l1.879,1.879a1.02,1.02,0,0,1-.721,1.741h-2.657A1.461,1.461,0,0,0,104,117.5v3.386a1.461,1.461,0,0,0,1.461,1.46h2.657a1.02,1.02,0,0,1,.721,1.741l-1.879,1.879a1.465,1.465,0,0,0,0,2.066l2.394,2.394a1.5,1.5,0,0,0,2.066,0l1.879-1.879a1.02,1.02,0,0,1,1.741.721v2.657a1.461,1.461,0,0,0,1.46,1.46h3.386a1.461,1.461,0,0,0,1.46-1.46v-2.657a1.02,1.02,0,0,1,1.741-.721l1.879,1.879a1.5,1.5,0,0,0,2.066,0l2.394-2.394a1.465,1.465,0,0,0,0-2.066l-1.879-1.879a1.02,1.02,0,0,1,.721-1.741h2.657a1.461,1.461,0,0,0,1.46-1.46V117.5a1.461,1.461,0,0,0-1.46-1.46Zm.411,4.846a.412.412,0,0,1-.411.411h-2.657a2.07,2.07,0,0,0-1.463,3.534l1.876,1.879a.407.407,0,0,1,0,.58l-2.392,2.392a.409.409,0,0,1-.58,0L123.83,127.8a2.07,2.07,0,0,0-3.534,1.463v2.657a.412.412,0,0,1-.411.411H116.5a.413.413,0,0,1-.411-.411v-2.657a2.036,2.036,0,0,0-1.278-1.913,2.083,2.083,0,0,0-.806-.164,2.045,2.045,0,0,0-1.45.611l-1.877,1.879a.412.412,0,0,1-.583,0l-2.392-2.392a.416.416,0,0,1,0-.583l1.879-1.876a2.072,2.072,0,0,0-1.465-3.534h-2.657a.409.409,0,0,1-.408-.411V117.5a.41.41,0,0,1,.408-.411h2.657a2.071,2.071,0,0,0,1.465-3.534l-1.879-1.877a.416.416,0,0,1,0-.583L110.1,108.7a.416.416,0,0,1,.583,0l1.877,1.876a2.07,2.07,0,0,0,3.534-1.463v-2.657a.41.41,0,0,1,.411-.408h3.386a.409.409,0,0,1,.411.408v2.657a2.072,2.072,0,0,0,3.534,1.465l1.879-1.879a.412.412,0,0,1,.58,0l2.392,2.394a.407.407,0,0,1,0,.58l-1.876,1.877a2.071,2.071,0,0,0,1.463,3.536h2.657a.409.409,0,0,1,.411.408Zm0,0" transform="translate(-104 -105)" fill="none" stroke="#fff" stroke-width="1"/>
    <path id="Path_73" data-name="Path 73" d="M123.132,119.4a4.732,4.732,0,1,0,4.73,4.734,4.738,4.738,0,0,0-4.73-4.734Zm0,8.411a3.679,3.679,0,1,1,3.678-3.678,3.683,3.683,0,0,1-3.678,3.678Zm0,0" transform="translate(-108.938 -109.937)" fill="none" stroke="#fff" stroke-width="1"/>
  </g>
</svg>
