<svg id="icon-serviceProvider" xmlns="http://www.w3.org/2000/svg" width="31" height="25.242" viewBox="0 0 31 25.242">
  <path id="Path_32" data-name="Path 32" d="M187.933,187.3h-1.162v-3.887c0-1.682-1.768-3.157-3.783-3.157h-7.842v-3.522h1.808a1.983,1.983,0,0,0,2.067-1.878v-3.874a1.983,1.983,0,0,0-2.067-1.879h-4.908a1.983,1.983,0,0,0-2.067,1.879v3.874a1.983,1.983,0,0,0,2.067,1.878h1.808v3.522h-7.842c-2.015,0-3.783,1.475-3.783,3.157V187.3h-1.163A1.983,1.983,0,0,0,159,189.18v3.287a1.983,1.983,0,0,0,2.067,1.878h3.617a1.983,1.983,0,0,0,2.067-1.878V189.18a1.983,1.983,0,0,0-2.067-1.878h-1.163v-3.887c0-1.135,1.315-1.983,2.491-1.983h7.842v5.87h-1.162a1.983,1.983,0,0,0-2.067,1.878v3.287a1.983,1.983,0,0,0,2.067,1.878h3.617a1.983,1.983,0,0,0,2.067-1.878V189.18a1.983,1.983,0,0,0-2.067-1.878h-1.163v-5.87h7.842c1.176,0,2.491.848,2.491,1.983V187.3h-1.163a1.983,1.983,0,0,0-2.067,1.878v3.287a1.983,1.983,0,0,0,2.067,1.878h3.617A1.983,1.983,0,0,0,190,192.468V189.18A1.983,1.983,0,0,0,187.933,187.3Zm-16.662-12.445v-3.874a.742.742,0,0,1,.775-.7h4.908a.742.742,0,0,1,.775.7v3.874a.742.742,0,0,1-.775.7h-4.908A.742.742,0,0,1,171.271,174.857Zm-5.812,14.323v3.287a.742.742,0,0,1-.775.7h-3.617a.742.742,0,0,1-.775-.7V189.18a.742.742,0,0,1,.775-.7h3.617A.742.742,0,0,1,165.458,189.18Zm11.625,0v3.287a.742.742,0,0,1-.775.7h-3.617a.742.742,0,0,1-.775-.7V189.18a.742.742,0,0,1,.775-.7h3.617A.742.742,0,0,1,177.083,189.18Zm11.625,3.287a.742.742,0,0,1-.775.7h-3.617a.742.742,0,0,1-.775-.7V189.18a.742.742,0,0,1,.775-.7h3.617a.742.742,0,0,1,.775.7Z" transform="translate(-159 -169.104)" fill="#fff"/>
</svg>
