<?xml version="1.0" encoding="utf-8"?>
<!-- Generator: Adobe Illustrator 27.7.0, SVG Export Plug-In . SVG Version: 6.00 Build 0)  -->
<svg version="1.1" id="Layer_1" xmlns="http://www.w3.org/2000/svg" xmlns:xlink="http://www.w3.org/1999/xlink" x="0px" y="0px"
	 viewBox="0 0 40 28.6" style="enable-background:new 0 0 40 28.6;" xml:space="preserve">
<style type="text/css">
	.st0{clip-path:url(#SVGID_00000004520732549368304190000000718928708589879432_);}
	.st1{fill:#FFFFFF;}
</style>
<g>
	<defs>
		<rect id="SVGID_1_" width="40" height="28.6"/>
	</defs>
	<clipPath id="SVGID_00000022556501183118756800000009204252908058742434_">
		<use xlink:href="#SVGID_1_"  style="overflow:visible;"/>
	</clipPath>
	<g id="users" style="clip-path:url(#SVGID_00000022556501183118756800000009204252908058742434_);">
		<path id="Path_882" class="st1" d="M13.6,0c-2.8,0-5,2.2-5,5s2.2,5,5,5s5-2.2,5-5c0,0,0,0,0,0C18.6,2.2,16.3,0,13.6,0 M26.4,0
			c-2.8,0-5,2.2-5,5s2.2,5,5,5s5-2.2,5-5C31.4,2.2,29.2,0,26.4,0 M13.6,2.9c1.2,0,2.1,1,2.1,2.1s-1,2.1-2.1,2.1s-2.1-1-2.1-2.1l0,0
			C11.4,3.8,12.4,2.9,13.6,2.9C13.5,2.9,13.6,2.9,13.6,2.9 M26.4,2.9c1.2,0,2.1,1,2.1,2.1s-1,2.1-2.1,2.1s-2.1-1-2.1-2.1
			c0,0,0,0,0,0C24.3,3.8,25.2,2.9,26.4,2.9C26.4,2.9,26.4,2.9,26.4,2.9 M7.1,8.6c-3.1,0-5.7,2.5-5.7,5.6c0,1.6,0.6,3,1.7,4.1
			c-2,1.3-3.2,3.6-3.2,5.9h2.9c0-2.4,1.9-4.3,4.3-4.3c2.4,0,4.3,1.9,4.3,4.3h2.9c0-2.4-1.2-4.6-3.2-5.9c1.1-1.1,1.7-2.5,1.7-4.1
			C12.9,11.1,10.3,8.6,7.1,8.6 M14.3,24.3c-0.9,1.2-1.4,2.7-1.4,4.3h2.9c0-2.4,1.9-4.3,4.3-4.3s4.3,1.9,4.3,4.3l0,0h2.9
			c0-1.5-0.5-3-1.4-4.3c-0.5-0.6-1.1-1.2-1.7-1.6c2.3-2.2,2.3-5.8,0.1-8.1s-5.8-2.3-8.1-0.1s-2.3,5.8-0.1,8.1c0,0,0.1,0.1,0.1,0.1
			C15.4,23.1,14.8,23.6,14.3,24.3 M25.7,24.3h2.9c0-2.4,1.9-4.3,4.3-4.3s4.3,1.9,4.3,4.3c0,0,0,0,0,0H40c0-2.4-1.2-4.6-3.2-5.9
			c2.3-2.2,2.3-5.8,0.1-8.1c-2.2-2.3-5.8-2.3-8.1-0.1s-2.3,5.8-0.1,8.1c0,0,0.1,0.1,0.1,0.1C26.9,19.7,25.7,21.9,25.7,24.3
			 M7.1,11.4c1.6,0,2.9,1.3,2.9,2.9c0,1.6-1.3,2.9-2.9,2.9c-1.6,0-2.9-1.3-2.9-2.9c0,0,0,0,0,0C4.3,12.7,5.5,11.4,7.1,11.4
			C7.1,11.4,7.1,11.4,7.1,11.4 M32.9,11.4c1.6,0,2.9,1.3,2.9,2.9s-1.3,2.9-2.9,2.9c-1.6,0-2.9-1.3-2.9-2.9
			C30,12.7,31.2,11.4,32.9,11.4C32.8,11.4,32.8,11.4,32.9,11.4 M20,15.7c1.6,0,2.9,1.3,2.9,2.9c0,1.6-1.3,2.9-2.9,2.9
			c-1.6,0-2.9-1.3-2.9-2.9C17.1,17,18.4,15.7,20,15.7C20,15.7,20,15.7,20,15.7"/>
	</g>
</g>
</svg>
