<svg xmlns="http://www.w3.org/2000/svg" xmlns:xlink="http://www.w3.org/1999/xlink" width="31" height="31" viewBox="0 0 31 31">
  <defs>
    <clipPath id="clip-path">
      <rect id="Rectangle_874" data-name="Rectangle 874" width="31" height="31" fill="#80DAF6" stroke="#707070" stroke-width="1"/>
    </clipPath>
  </defs>
  <g id="fund" clip-path="url(#clip-path)">
    <g id="funds-svgrepo-com" transform="translate(0 1.62)">
      <path id="Path_837" data-name="Path 837" d="M23.7,13.289c0-.006,0-.012,0-.017a.692.692,0,0,0-.017-.085h0a.7.7,0,0,0-.027-.077l-.009-.021c-.008-.018-.017-.036-.027-.054L23.6,13.01,23.6,13c-.01-.016-.022-.032-.033-.047l-.006-.009a.681.681,0,0,0-.056-.064l-.012-.011a.706.706,0,0,0-.054-.047l-.014-.011a.711.711,0,0,0-.078-.051L13.011,6.885,18.96,3.139l9.974,5.669-4.2,2.645a.7.7,0,0,0,.747,1.187L30.672,9.37a.7.7,0,0,0-.027-1.2L19.288,1.712a.7.7,0,0,0-.72.016L11.277,6.319l0,0L7.629,8.616l0,0-7.3,4.594a.7.7,0,0,0,.027,1.2l11.357,6.456a.7.7,0,0,0,.72-.016l5.192-3.269a.7.7,0,0,0-.747-1.187L12.04,19.445,2.067,13.776,8.016,10.03l10.637,6.046v8.008a.7.7,0,0,0,1.075.593l3.648-2.3a.7.7,0,0,0,.328-.593V13.371s0-.008,0-.012Q23.7,13.324,23.7,13.289Zm-3.642,9.525V15.668a.7.7,0,0,0-.355-.61L9.362,9.182l2.3-1.449L21.637,13.4l-.873.55a.7.7,0,1,0,.747,1.187l.79-.5V21.4Z" transform="translate(0 -1.62)" fill="#fff"/>
      <path id="Path_838" data-name="Path 838" d="M29.925,10.989l-5.192,3.269a.7.7,0,1,0,.747,1.187l5.192-3.269a.7.7,0,0,0-.747-1.187Z" transform="translate(0 -1.62)" fill="#fff"/>
      <path id="Path_839" data-name="Path 839" d="M16.877,19.205,12.04,22.251,1.048,16a.7.7,0,1,0-.693,1.219l11.357,6.456a.7.7,0,0,0,.72-.016l5.192-3.269a.7.7,0,0,0-.747-1.187Z" transform="translate(0 -1.62)" fill="#fff"/>
      <path id="Path_840" data-name="Path 840" d="M29.925,13.794l-5.192,3.269a.7.7,0,1,0,.747,1.187l5.192-3.269a.7.7,0,0,0-.747-1.187Z" transform="translate(0 -1.62)" fill="#fff"/>
      <path id="Path_841" data-name="Path 841" d="M16.877,22.011,12.04,25.056,1.048,18.808a.7.7,0,0,0-.693,1.219l11.357,6.456a.7.7,0,0,0,.72-.016L17.624,23.2a.7.7,0,0,0-.747-1.187Z" transform="translate(0 -1.62)" fill="#fff"/>
      <path id="Path_842" data-name="Path 842" d="M29.925,16.6l-5.192,3.269a.7.7,0,1,0,.747,1.187l5.192-3.269a.7.7,0,0,0-.747-1.187Z" transform="translate(0 -1.62)" fill="#fff"/>
      <path id="Path_843" data-name="Path 843" d="M16.877,24.816,12.04,27.861,1.048,21.613a.7.7,0,0,0-.693,1.219l11.357,6.456a.7.7,0,0,0,.72-.016L17.624,26a.7.7,0,0,0-.747-1.187Z" transform="translate(0 -1.62)" fill="#fff"/>
    </g>
  </g>
</svg>
