<?xml version="1.0" encoding="utf-8"?>
<!-- Generator: Adobe Illustrator 27.7.0, SVG Export Plug-In . SVG Version: 6.00 Build 0)  -->
<svg version="1.1" id="Layer_1" xmlns="http://www.w3.org/2000/svg" xmlns:xlink="http://www.w3.org/1999/xlink" x="0px" y="0px"
	 viewBox="0 0 32.7 31.5" style="enable-background:new 0 0 32.7 31.5;" xml:space="preserve">
<style type="text/css">
	.st0{clip-path:url(#SVGID_00000134962489523017699860000005760789036164974746_);}
	.st1{fill:#FFFFFF;}
</style>
<g>
	<defs>
		<rect id="SVGID_1_" width="32.7" height="31.5"/>
	</defs>
	<clipPath id="SVGID_00000142885387610300086770000015032105298676858499_">
		<use xlink:href="#SVGID_1_"  style="overflow:visible;"/>
	</clipPath>
	<g id="icon-userRoles" style="clip-path:url(#SVGID_00000142885387610300086770000015032105298676858499_);">
		<path id="Path_883" class="st1" d="M12.6,0C7.7,0,3.8,3.6,3.8,8.2c0,2.8,1.5,5.3,3.9,6.8C3.1,16.6,0.1,20.8,0,25.6h2.5
			c0-5.1,4.5-9.3,10.1-9.3c4.9,0,8.8-3.6,8.8-8.2S17.5,0,12.6,0 M12.6,2.3c3.3-0.2,6.1,2.4,6.3,5.7c0,0,0,0.1,0,0.1
			c-0.1,3.3-2.9,5.9-6.2,5.8c0,0-0.1,0-0.1,0c-3.3,0.2-6.1-2.4-6.3-5.7c0,0,0-0.1,0-0.1C6.4,4.8,9.2,2.2,12.6,2.3
			C12.5,2.3,12.6,2.3,12.6,2.3 M22.8,15.2v2.4c-0.8,0.1-1.5,0.4-2.1,0.8l-1.9-1.7L17,18.3l1.9,1.7c-0.5,0.6-0.8,1.3-0.9,2.1h-2.9
			v2.3h2.6c0.2,0.7,0.5,1.5,0.9,2.1l-1.9,1.7l1.8,1.6l1.9-1.8c0.7,0.4,1.4,0.7,2.1,0.8v2.5h2.5V29c0.8-0.1,1.5-0.4,2.1-0.8l1.9,1.7
			l1.8-1.6L29,26.6c0.5-0.6,0.8-1.3,0.9-2.1h2.9v-2.3h-2.6c-0.2-0.7-0.5-1.5-0.9-2.1l1.9-1.7l-1.8-1.6l-1.9,1.7
			c-0.7-0.4-1.4-0.7-2.1-0.8v-2.4L22.8,15.2L22.8,15.2z M23.9,19.8c1.9-0.1,3.6,1.3,3.7,3.3c0.1,1.9-1.3,3.6-3.3,3.7
			c-0.2,0-0.3,0-0.5,0c-1.9,0.1-3.6-1.3-3.7-3.3c-0.1-1.9,1.3-3.6,3.3-3.7C23.6,19.8,23.8,19.8,23.9,19.8 M23.9,22.1
			c-0.2,0-0.3,0-0.5,0.1c-0.1,0.1-0.3,0.2-0.4,0.3c-0.1,0.1-0.2,0.2-0.3,0.4c-0.1,0.1-0.1,0.3-0.1,0.4c0,0.5,0.4,0.9,0.8,1.1
			c0.1,0.1,0.3,0.1,0.5,0.1c0.7,0,1.2-0.5,1.3-1.2C25.1,22.7,24.6,22.2,23.9,22.1"/>
	</g>
</g>
</svg>
