<svg xmlns="http://www.w3.org/2000/svg" width="36.027" height="36.201" viewBox="0 0 36.027 36.201">
  <path id="icon-filter" d="M63.786,30.863H46.5a1.184,1.184,0,0,0-1.182,1.182v7.537H31.8a1.363,1.363,0,0,0-1.363,1.363V64.2A1.363,1.363,0,0,0,31.8,65.564H55.061A1.363,1.363,0,0,0,56.423,64.2V49.861h7.362a1.184,1.184,0,0,0,1.182-1.182V32.045a1.184,1.184,0,0,0-1.182-1.182Zm-16.1,2.372H53.9v3.184h-6.21Zm0,5.528H53.9v3.184h-6.21Zm0,5.549H53.9V47.5h-6.21ZM53.7,62.839H33.167V42.308H45.321v6.024L41.552,52.1l-1.465-1.465a.582.582,0,0,0-.975.261l-1.977,7.38a.582.582,0,0,0,.714.713l7.379-1.977a.583.583,0,0,0,.261-.975l-1.465-1.466,4.711-4.712H53.7ZM62.6,47.5H56.392V44.312H62.6Zm0-5.549H56.392V38.763H62.6Zm0-5.528H56.392V33.235H62.6Zm0,0" transform="translate(-29.691 -30.113)" fill="none" stroke="#fff" stroke-width="1.5"/>
</svg>
