<svg xmlns="http://www.w3.org/2000/svg" xmlns:xlink="http://www.w3.org/1999/xlink" width="25" height="25" viewBox="0 0 25 25">
  <defs>
    <clipPath id="clip-path">
      <rect id="Rectangle_1259" data-name="Rectangle 1259" width="25" height="25" transform="translate(-18.607 295)" fill="#187cab" stroke="#707070" stroke-width="1"/>
    </clipPath>
  </defs>
  <g id="icon-commet" transform="translate(18.607 -295)" clip-path="url(#clip-path)">
    <path id="comment-line-svgrepo-com" d="M13.983,1.994C7.324,1.994,1.907,6.6,1.907,12.268A9.314,9.314,0,0,0,4.4,18.48l-.005-.006a11.065,11.065,0,0,1-3.146,5.567l0,0A.636.636,0,0,0,1.7,25.126h0a.635.635,0,0,0,.134-.014h0a16.9,16.9,0,0,0,7.728-3.335l-.038.029a13.564,13.564,0,0,0,4.459.738h.01c6.658,0,12.076-4.609,12.076-10.275S20.643,1.995,13.984,1.995Zm0,19.278h-.046a12.52,12.52,0,0,1-4.411-.8l.086.029a.6.6,0,0,0-.165-.025h0a.46.46,0,0,0-.047-.008h0a.63.63,0,0,0-.411.153h0c-.008.007-.02,0-.029.011a13.3,13.3,0,0,1-5.387,2.748l-.092.019a11.236,11.236,0,0,0,2.219-4.9l.011-.07v-.018c0-.018,0-.036,0-.054v-.01c0-.016,0-.031,0-.047v0a.618.618,0,0,0-.156-.4h0l-.009-.023a8.008,8.008,0,0,1-2.365-5.615v0c0-4.964,4.847-9,10.8-9s10.8,4.039,10.8,9-4.846,9-10.8,9Zm7.2-11.739H7.627a.636.636,0,1,0,0,1.271H21.186a.636.636,0,0,0,0-1.271Zm-7.627,5.085H7.627a.636.636,0,1,0,0,1.271h5.932a.636.636,0,1,0,0-1.271Z" transform="translate(-19.667 293.94)" fill="#187cab"/>
  </g>
</svg>
