<?xml version="1.0" encoding="utf-8"?>
<!-- Generator: Adobe Illustrator 27.7.0, SVG Export Plug-In . SVG Version: 6.00 Build 0)  -->
<svg version="1.1" id="Layer_1" xmlns="http://www.w3.org/2000/svg" xmlns:xlink="http://www.w3.org/1999/xlink" x="0px" y="0px"
	 viewBox="0 0 186.5 111.3" style="enable-background:new 0 0 186.5 111.3;" xml:space="preserve">
<style type="text/css">
	.st0{fill:none;}
	.st1{enable-background:new    ;}
	.st2{fill:#5F5D5C;}
	.st3{fill:#008ABF;}
	.st4{fill-rule:evenodd;clip-rule:evenodd;fill:#E3001B;}
	.st5{fill:#006A9B;}
	.st6{fill:#9CA427;}
	.st7{fill:#656E27;}
</style>
<rect class="st0" width="186.5" height="111.3"/>
<g id="Group_4001">
	<g class="st1">
		<path class="st2" d="M82.1,67.9c5.4,0,8.2-2,8.2-6.1c0-2.4-1.9-4.2-5.8-5.5c-1.6-0.5-3.4-1-5.3-1.5c-1.9-0.5-3.7-1.1-5.3-1.8
			c-1.9-0.9-3.4-2-4.3-3.4c-1-1.4-1.4-3-1.4-4.8c0-3.7,1.3-6.5,3.9-8.4c2.6-1.9,5.7-2.9,9.4-2.9c3.6,0,6.6,0.7,9,2.2
			c2.4,1.5,4,4.1,4.8,7.9h-6.4c-0.6-2.1-1.6-3.5-2.9-4.2c-1.3-0.7-2.9-1-4.7-1c-1.9,0-3.4,0.4-4.8,1.2c-1.4,0.8-2,2.1-2,3.7
			c0,1.7,0.6,2.9,1.7,3.7c1.1,0.8,2.5,1.4,4.1,1.9c1.6,0.5,3.4,1,5.3,1.4c1.9,0.4,3.7,1,5.4,1.8c3.8,1.8,5.8,4.8,5.8,8.8
			c0,4-1.4,7-4.3,8.9c-1.4,1-3.1,1.7-4.8,2.2c-1.7,0.5-3.6,0.7-5.7,0.7c-8.7,0-13.7-3.9-14.9-11.6h6.3c0.6,2.4,1.7,4.1,3.2,5.1
			C77.8,67.4,79.8,67.9,82.1,67.9z"/>
		<path class="st2" d="M139.6,55.3h-32.9c0.6,3.2,2.1,5.8,4.7,7.9c2.6,2.1,5.5,3.1,8.7,3.1c2.2,0,4.2-0.5,6.2-1.5
			c2-1,3.6-2.4,4.9-4.1h6.8c-1.6,3.6-4,6.4-7.2,8.5s-6.5,3.1-9.8,3.1c-3.3,0-6.1-0.5-8.5-1.5c-2.4-1-4.4-2.4-6.2-4.2
			c-3.8-3.8-5.7-8.4-5.7-13.8c0-5.4,1.9-10,5.7-13.8c3.8-3.8,8.4-5.7,13.8-5.7c5.2,0,9.8,1.8,13.6,5.5c3.9,3.8,5.9,8.2,5.9,13.3
			V55.3z M128.5,42.3c-2.5-2-5.3-3.1-8.5-3.1c-4.8,0-8.7,2.2-11.5,6.6c-0.8,1.3-1.4,2.8-1.8,4.4h26.5
			C132.6,47.1,131,44.4,128.5,42.3z"/>
	</g>
	<g class="st1">
		<path class="st2" d="M183.9,55.3H151c0.6,3.2,2.1,5.8,4.7,7.9c2.6,2.1,5.5,3.1,8.7,3.1c2.2,0,4.2-0.5,6.2-1.5c2-1,3.6-2.4,4.9-4.1
			h6.8c-1.6,3.6-4,6.4-7.2,8.5c-3.2,2.1-6.5,3.1-9.8,3.1s-6.1-0.5-8.5-1.5c-2.4-1-4.4-2.4-6.2-4.2c-3.8-3.8-5.7-8.4-5.7-13.8
			c0-5.4,1.9-10,5.7-13.8c3.8-3.8,8.4-5.7,13.8-5.7c5.2,0,9.8,1.8,13.6,5.5c3.9,3.8,5.9,8.2,5.9,13.3V55.3z M172.8,42.3
			c-2.5-2-5.3-3.1-8.5-3.1c-4.8,0-8.7,2.2-11.5,6.6c-0.9,1.3-1.4,2.8-1.8,4.4h26.5C176.9,47.1,175.3,44.4,172.8,42.3z"/>
	</g>
	<path id="Path_868" class="st3" d="M35.5,83.8c0,0.5,0.5,0.4,1.2,0.4l0,0l147.5,0v0c0.7,0,1.2,0.1,1.2-0.4c0-0.5-0.5-0.5-1.2-0.5v0
		l-147.5,0l0,0C36.1,83.3,35.5,83.3,35.5,83.8"/>
	<g class="st1">
		<path class="st3" d="M72.6,105.2c-0.1-0.5-0.1-0.8-0.1-1c-0.8,1.2-1.8,1.2-2.3,1.2c-1.1,0-1.6-0.3-1.9-0.6
			c-0.5-0.5-0.7-1.1-0.7-1.7s0.2-1.7,1.6-2.4c0.9-0.4,2.3-0.4,3-0.4c0-0.5,0-0.7-0.1-1c-0.2-0.6-0.8-0.6-1-0.6
			c-0.3,0-0.6,0.1-0.8,0.4c-0.2,0.3-0.2,0.5-0.2,0.7h-2.2c0-0.4,0.1-1.2,0.9-1.8c0.7-0.5,1.6-0.6,2.3-0.6c0.6,0,1.9,0.1,2.7,1
			c0.5,0.6,0.5,1.5,0.5,1.9l0,3c0,0.6,0,1.3,0.2,1.9H72.6z M69.9,102.8c0,0.5,0.3,1.1,1.1,1.1c0.4,0,0.7-0.2,0.9-0.4
			c0.4-0.5,0.4-1.1,0.4-1.9C70.9,101.5,69.9,101.9,69.9,102.8z"/>
		<path class="st3" d="M78,99c0,0,0-0.9,0-1.4H80l0.1,1.1c0.2-0.3,0.8-1.3,2.5-1.3c1.5,0,2.1,0.9,2.3,1.4c0.2,0.5,0.2,0.9,0.2,2.3
			v4.1h-2.3v-4.7c0-0.3,0-0.6-0.1-0.8c-0.2-0.3-0.5-0.6-1.1-0.6c-0.5,0-0.9,0.2-1.2,0.6c-0.1,0.2-0.3,0.6-0.3,1.2v4.4H78V99z"/>
		<path class="st3" d="M93.1,105.2c-0.1-0.5-0.1-0.8-0.1-1c-0.8,1.2-1.8,1.2-2.3,1.2c-1.1,0-1.6-0.3-1.9-0.6
			c-0.5-0.5-0.7-1.1-0.7-1.7s0.2-1.7,1.6-2.4c0.9-0.4,2.3-0.4,3-0.4c0-0.5,0-0.7-0.1-1c-0.2-0.6-0.8-0.6-1-0.6
			c-0.3,0-0.6,0.1-0.8,0.4c-0.2,0.3-0.2,0.5-0.2,0.7h-2.2c0-0.4,0.1-1.2,0.9-1.8c0.7-0.5,1.6-0.6,2.3-0.6c0.6,0,1.9,0.1,2.7,1
			c0.5,0.6,0.5,1.5,0.5,1.9l0,3c0,0.6,0,1.3,0.2,1.9H93.1z M90.4,102.8c0,0.5,0.3,1.1,1.1,1.1c0.4,0,0.7-0.2,0.9-0.4
			c0.4-0.5,0.4-1.1,0.4-1.9C91.4,101.5,90.4,101.9,90.4,102.8z"/>
		<path class="st3" d="M98.4,94.3h2.2v10.8h-2.2V94.3z"/>
		<path class="st3" d="M105.7,97.6l1.7,5.2l1.7-5.2h2.2l-2.9,7.4l-0.9,3h-2.2l1-2.8l-2.9-7.6H105.7z"/>
		<path class="st3" d="M118.4,105.1c-0.7,0.2-1.4,0.2-1.7,0.2c-2.2,0-2.2-1.4-2.2-2v-4.2H113v-1.5h1.5v-1.5l2.2-0.8v2.3h1.8v1.5
			h-1.8v3.4c0,0.7,0,1.1,1,1.1c0.3,0,0.5,0,0.8,0V105.1z"/>
		<path class="st3" d="M121.2,94.4h2.4v1.9h-2.4V94.4z M121.3,97.6h2.2v7.6h-2.2V97.6z"/>
	</g>
	<g class="st1">
		<path class="st3" d="M131,100.3c0-0.3-0.1-1.4-1-1.4c-1,0-1.2,1.6-1.2,2.4c0,0.4,0,1.8,0.6,2.3c0.2,0.2,0.4,0.3,0.6,0.3
			c0.2,0,0.9-0.1,1-1.5h2.2c0,0.6-0.1,1.5-1,2.2c-0.5,0.5-1.2,0.7-2.2,0.7c-1,0-1.9-0.2-2.6-1c-0.7-0.8-1-1.8-1-3
			c0-3.5,2.5-3.9,3.5-3.9c1.4,0,3.1,0.8,3.1,2.8H131z"/>
	</g>
	<g class="st1">
		<path class="st3" d="M137.5,103c0,0.5,0.3,1,1.3,1c0.8,0,1.2-0.4,1.2-0.9c0-0.3-0.2-0.6-1-0.9l-1.4-0.4c-0.6-0.2-1.9-0.6-1.9-2.1
			c0-1.5,1.3-2.4,3.3-2.4c1.6,0,2.8,0.7,2.9,2.2h-2c-0.1-0.8-0.7-0.9-1.1-0.9c-0.6,0-1,0.3-1,0.8c0,0.5,0.4,0.6,1,0.8l1.4,0.4
			c1.4,0.4,2,1.1,2,2.1c0,1.3-1.1,2.6-3.5,2.6c-1,0-1.9-0.2-2.6-0.9c-0.5-0.5-0.5-1.1-0.6-1.5H137.5z"/>
	</g>
	<path id="Path_869" class="st2" d="M63.7,62c0,0.5-0.1,1.1-0.3,1.6c-0.1,0.3-0.5,0.6-0.9,0.6h-4.4v8.3c0,0.1,0,0.3-0.1,0.4
		c-0.1,0.1-0.3,0.2-0.4,0.3c-0.3,0.1-0.5,0.2-0.8,0.2c-0.4,0-0.9,0.1-1.3,0.1c-0.4,0-0.8,0-1.3-0.1c-0.3,0-0.5-0.1-0.8-0.2
		c-0.2-0.1-0.3-0.2-0.4-0.3c-0.1-0.1-0.1-0.3-0.1-0.4v-8.3H36.8c-0.2,0-0.4,0-0.6-0.1c-0.2-0.1-0.3-0.2-0.4-0.3
		c-0.1-0.2-0.2-0.4-0.3-0.7c-0.1-0.4-0.1-0.8-0.1-1.2c0-0.4,0-0.7,0-1c0-0.3,0.1-0.6,0.1-0.8c0.1-0.2,0.1-0.5,0.2-0.7
		c0.1-0.2,0.2-0.5,0.4-0.7l14-23.9c0.1-0.2,0.3-0.3,0.4-0.4c0.2-0.1,0.5-0.2,0.8-0.3c0.4-0.1,0.8-0.1,1.1-0.2c0.5,0,1,0,1.6,0
		c0.7,0,1.3,0,1.8,0.1c0.4,0,0.8,0.1,1.2,0.2c0.3,0.1,0.5,0.2,0.7,0.3c0.2,0.1,0.2,0.3,0.2,0.5v25.1h4.4c0.4,0,0.7,0.2,0.8,0.5
		C63.6,60.9,63.7,61.4,63.7,62 M52.4,39L52.4,39L39.7,60.5h12.7L52.4,39z"/>
	<path id="Path_870" class="st4" d="M42.9,11.2C42.8,11.2,42.8,11.2,42.9,11.2c1.1,3.8,1.7,7.7,1.5,11.6c-0.1,3.7-0.9,7.3-2.3,10.7
		c1.2-1.3,2.2-2.9,2.9-4.5c0.8-1.9,1.3-4,1.4-6.1C46.5,18.6,45.3,14.5,42.9,11.2"/>
	<path id="Path_871" class="st5" d="M4.5,39.6C5,38.8,5.7,38,6.6,37.5c0.4-0.5,0.8-1,1.4-1.3c2.7-2.2,5.8-3.8,9.2-4.7
		c0.1,0.1,0.2,0.2,0.3,0.3c5.7,5.4,13.7,7.5,21.3,5.8c-2.5,7.3-7.5,12.7-14.9,15.3c-2.1,0.7-4.3,1.2-6.5,1.3
		c-4.4,0.3-8.9-0.7-12.8-2.7c-1.7-0.9-3.2-2-4.6-3.3C0.9,45,2.4,42.1,4.5,39.6"/>
	<path id="Path_872" class="st6" d="M38.5,36.1c-6-4.9-13.9-6.6-21.4-4.7c-1.5-1.4-2.8-3-4-4.7c-2.4-3.8-3.8-8.1-3.9-12.6
		c-0.1-1.9,0.1-3.8,0.6-5.6c3.1-0.7,6.4-0.8,9.6-0.2c1,0.1,2,0.3,2.9,0.8c0.6,0.1,1.3,0.3,1.8,0.6c5,2,9.1,5.5,11.9,10.1
		c3.6,6,4.4,12.4,3.1,17.1C38.9,36.5,38.8,36.2,38.5,36.1"/>
	<path id="Path_873" class="st7" d="M17.5,31.7c-0.1-0.1-0.2-0.2-0.3-0.3c7.5-2,15.4-0.2,21.4,4.7c0.2,0.2,0.4,0.4,0.6,0.6
		c-0.1,0.2-0.1,0.4-0.2,0.6c0,0.1-0.1,0.2-0.1,0.2c0,0,0,0,0,0C31.2,39.3,23.2,37.1,17.5,31.7"/>
</g>
</svg>
