<?xml version="1.0" encoding="UTF-8"?>
<svg id="Layer_1" data-name="Layer 1" xmlns="http://www.w3.org/2000/svg" viewBox="0 0 517.53 135.89">
  <defs>
    <style>
      .cls-1 {
        fill: #231f20;
      }

      .cls-2 {
        fill: #faab6a;
      }

      .cls-3 {
        fill: #020303;
      }
    </style>
  </defs>
  <g>
    <path class="cls-3" d="M153.21,74.89l44.91-63.52h24.02v61.53h8.53v19.61h-8.53v22.59h-20.04v-22.59h-48.88v-17.62ZM175.66,72.9h26.43v-34.53l-26.43,34.53Z"/>
    <path class="cls-3" d="M251.4,90.52c2.37,2.37,5.63,4.26,9.8,5.68,4.17,1.42,8.24,2.13,12.22,2.13,7.86,0,11.79-2.04,11.79-6.11,0-1.8-1.54-3.29-4.62-4.48-3.08-1.18-6.82-2.27-11.23-3.27-4.41-.99-8.81-2.3-13.22-3.91-4.41-1.61-8.15-4.26-11.23-7.96-3.08-3.69-4.62-8.33-4.62-13.93,0-7.01,2.79-12.65,8.38-16.91,5.59-4.26,12.93-6.39,22.03-6.39,14.4,0,25.25,4.31,32.54,12.93l-11.94,12.08c-2.18-2.37-5.19-4.17-9.02-5.4-3.84-1.23-7.51-1.85-11.01-1.85s-6.09.5-8.03,1.49c-1.94.99-2.91,2.34-2.91,4.05,0,1.61,1.54,2.96,4.62,4.05,3.08,1.09,6.84,2.13,11.3,3.13,4.45.99,8.88,2.3,13.29,3.91,4.41,1.61,8.15,4.26,11.23,7.96,3.08,3.7,4.62,8.29,4.62,13.78,0,8.34-3.01,14.66-9.02,18.97-6.02,4.31-13.67,6.47-22.95,6.47-6.44,0-12.91-1.12-19.4-3.34-6.49-2.22-11.87-5.56-16.13-10.02l13.5-13.07Z"/>
    <path class="cls-3" d="M326.72,47.61c7.77-7.86,17.2-11.79,28.28-11.79s20.63,3.93,28.35,11.79c7.72,7.86,11.58,17.34,11.58,28.42,0,2.08-.19,4.74-.57,7.96h-57.84c1.04,4.07,3.43,7.41,7.18,10.02,3.74,2.61,8.12,3.91,13.14,3.91,7.67,0,13.69-2.42,18.05-7.25l16.06,10.09c-3.69,4.74-8.67,8.53-14.92,11.37s-12.65,4.26-19.18,4.26c-12.03,0-22-3.91-29.91-11.72-7.91-7.82-11.87-17.36-11.87-28.63s3.88-20.56,11.65-28.42ZM336.52,68.07h37.66c-.57-3.79-2.61-7.01-6.11-9.66-3.51-2.65-7.82-3.98-12.93-3.98s-9.21,1.33-12.58,3.98c-3.36,2.65-5.38,5.88-6.04,9.66Z"/>
    <path class="cls-3" d="M415.53,47.61c7.77-7.86,17.19-11.79,28.28-11.79s20.63,3.93,28.35,11.79c7.72,7.86,11.58,17.34,11.58,28.42,0,2.08-.19,4.74-.57,7.96h-57.84c1.04,4.07,3.43,7.41,7.18,10.02,3.74,2.61,8.12,3.91,13.14,3.91,7.67,0,13.69-2.42,18.05-7.25l16.06,10.09c-3.7,4.74-8.67,8.53-14.92,11.37-6.25,2.84-12.65,4.26-19.18,4.26-12.03,0-22-3.91-29.91-11.72-7.91-7.82-11.87-17.36-11.87-28.63s3.88-20.56,11.65-28.42ZM425.34,68.07h37.66c-.57-3.79-2.61-7.01-6.11-9.66-3.51-2.65-7.82-3.98-12.93-3.98s-9.21,1.33-12.58,3.98c-3.36,2.65-5.38,5.88-6.04,9.66Z"/>
  </g>
  <path class="cls-2" d="M56.35,135.89C28.18,133.15,2.17,110.96.12,81.72c-.9-12.89,3.19-13.4,12.61-20.38-4.71,22.31,8.97,50.78,32.36,56.25,3.17-12.97-7.55-14.46-13.8-23.46-9.86-14.18-9.51-30.21-.02-44.52,2.78-4.18,12.54-10.85,13.11-12.1.59-1.29-1.23-6.13-.7-9.18.69-3.98,6.31-7.62,9.84-9.2-.28,4.46.37,8.74,1.88,12.93.59,1.65,6.22,9.01,7.29,9.56,2.73,1.42,2-2.13,2.1-3.49.29-3.95-.22-8.02.01-11.98,10.45,7.23,29.49,9.63,37.17,19.78,2.14,2.82,17.39,27.07,17.7,28.73.76,4.04-6.11,1.47-8.47,2.13l-.92,11.37c-7.49,5.62-25.6-3.37-21.38,8.82,1.68,4.87,13.07,3.87,16.66.91,3.05,4.17-9.21,20.5-15.44,19.69.68-17.17-21.85-7.76-18.36-26.67-21.35-1.03-33.23-23.16-22.42-41.53l-2.81-.69c-2.1,4.74-7.01,8.27-8.15,13.65-2.88,13.65,4.42,29.98,17.96,34.14v39.38ZM101.35,69.78c-3.93-9.87-9.72-25.15-22.5-23.89-1.68,15.41,8.08,22.62,22.5,23.89M69,50.1c-9.94,2.4-10.81,15.43-4.81,22.39,6.68,7.76,19.38,7.6,28.72,7.13l-14.53-7.25c-7.89-5.51-10.5-12.73-9.38-22.26"/>
  <path class="cls-1" d="M489.37,4.82c3.21-3.21,7.11-4.82,11.69-4.82s8.44,1.61,11.65,4.84c3.21,3.23,4.82,7.1,4.82,11.63s-1.61,8.49-4.82,11.72c-3.21,3.23-7.1,4.84-11.65,4.84s-8.48-1.61-11.69-4.84c-3.21-3.23-4.82-7.13-4.82-11.72s1.61-8.41,4.82-11.65ZM491.3,26.24c2.72,2.75,5.97,4.12,9.77,4.12s6.96-1.36,9.68-4.1c2.72-2.73,4.07-5.99,4.07-9.79s-1.36-7.01-4.07-9.72c-2.72-2.72-5.94-4.07-9.68-4.07s-7.05,1.36-9.77,4.07c-2.71,2.72-4.07,5.96-4.07,9.72s1.36,7.05,4.07,9.77ZM495.33,8.15h5.91c1.9,0,3.43.54,4.6,1.62,1.17,1.08,1.75,2.45,1.75,4.12,0,1.14-.31,2.15-.94,3.02-.63.88-1.47,1.53-2.52,1.97l3.81,5.91h-3.99l-3.11-5.17h-2.19v5.17h-3.33V8.15ZM498.65,16.29h2.8c.88,0,1.55-.23,2.01-.68.47-.45.7-1,.7-1.64,0-.7-.26-1.27-.79-1.71s-1.17-.66-1.93-.66h-2.8v4.69Z"/>
</svg>