<?xml version="1.0" encoding="utf-8"?>
<!-- Generator: Adobe Illustrator 27.8.0, SVG Export Plug-In . SVG Version: 6.00 Build 0)  -->
<svg version="1.1" id="Layer_1" xmlns="http://www.w3.org/2000/svg" xmlns:xlink="http://www.w3.org/1999/xlink" x="0px" y="0px"
	 viewBox="0 0 203.5 174.2" style="enable-background:new 0 0 203.5 174.2;" xml:space="preserve">
<style type="text/css">
	.st0{fill:#187CAB;}
</style>
<g>
	<path class="st0" d="M166.2,139.9c-6.5-9.2-18.9-11.9-28.5-6.4L70.5,38.3c8.3-7.3,10-19.8,3.5-29C67-0.5,53.4-2.9,43.6,4.1
		s-12.2,20.5-5.2,30.4c6.5,9.2,18.9,11.9,28.5,6.4l67.2,95.2c-8.3,7.3-10,19.8-3.5,29c6.9,9.8,20.5,12.2,30.4,5.2
		C170.8,163.3,173.2,149.7,166.2,139.9z M42.2,31.8c-5.5-7.7-3.6-18.4,4.1-23.9S64.7,4.2,70.2,12c5.5,7.7,3.6,18.4-4.1,23.9
		S47.6,39.5,42.2,31.8z M134.4,162.3c-5.5-7.7-3.6-18.4,4.1-23.9c7.7-5.5,18.4-3.6,23.9,4.1c5.5,7.7,3.6,18.4-4.1,23.9
		C150.6,171.9,139.9,170.1,134.4,162.3z"/>
	<path class="st0" d="M182.2,65.4c-11.3,0-20.6,8.6-21.7,19.6H44c-1.1-11-10.4-19.6-21.7-19.6c-12,0-21.8,9.8-21.8,21.8
		S10.3,109,22.3,109c11.3,0,20.6-8.6,21.7-19.6h116.5c1.1,11,10.4,19.6,21.7,19.6c12,0,21.8-9.8,21.8-21.8S194.3,65.4,182.2,65.4z
		 M22.3,104.3c-9.5,0-17.1-7.7-17.1-17.1S12.9,70,22.3,70s17.1,7.7,17.1,17.1S31.8,104.3,22.3,104.3z M182.2,104.3
		c-9.5,0-17.1-7.7-17.1-17.1S172.8,70,182.2,70s17.1,7.7,17.1,17.1S191.7,104.3,182.2,104.3z"/>
	<path class="st0" d="M131.8,9.7c-6.7,9.1-5.2,21.7,3.1,29.1l-68.6,94.2c-9.5-5.6-21.9-3.1-28.6,6c-7.1,9.7-5,23.4,4.8,30.5
		c9.7,7.1,23.4,5,30.5-4.8c6.7-9.1,5.2-21.7-3.1-29.1l68.6-94.2c9.5,5.6,21.9,3.1,28.6-6c7.1-9.7,5-23.4-4.8-30.5S138.9,0,131.8,9.7
		z M69.1,161.9c-5.6,7.7-16.3,9.3-24,3.8s-9.3-16.3-3.8-24c5.6-7.7,16.3-9.3,24-3.8S74.6,154.2,69.1,161.9z M163.2,32.7
		c-5.6,7.7-16.3,9.3-24,3.8c-7.7-5.6-9.3-16.3-3.8-24s16.3-9.3,24-3.8C167.1,14.3,168.8,25,163.2,32.7z"/>
	<circle class="st0" cx="102.3" cy="87.2" r="24.1"/>
</g>
</svg>
