<?xml version="1.0" encoding="utf-8"?>
<!-- Generator: Adobe Illustrator 27.8.0, SVG Export Plug-In . SVG Version: 6.00 Build 0)  -->
<svg version="1.1" id="Layer_1" xmlns="http://www.w3.org/2000/svg" xmlns:xlink="http://www.w3.org/1999/xlink" x="0px" y="0px"
	 viewBox="0 0 203.6 154.1" style="enable-background:new 0 0 203.6 154.1;" xml:space="preserve">
<style type="text/css">
	.st0{fill:#187CAB;}
</style>
<g>
	<g>
		<path class="st0" d="M21.9,0C9.8,0,0.1,9.8,0.1,21.8s9.8,21.8,21.8,21.8s21.8-9.8,21.8-21.8S33.9,0,21.9,0z M21.9,38.9
			c-9.5,0-17.1-7.7-17.1-17.1S12.4,4.7,21.9,4.7S39,12.3,39,21.8S31.3,38.9,21.9,38.9z"/>
		<path class="st0" d="M181.8,0c-12,0-21.8,9.8-21.8,21.8s9.8,21.8,21.8,21.8s21.8-9.8,21.8-21.8S193.8,0,181.8,0z M181.8,38.9
			c-9.5,0-17.1-7.7-17.1-17.1s7.7-17.1,17.1-17.1s17.1,7.7,17.1,17.1S191.2,38.9,181.8,38.9z"/>
		<circle class="st0" cx="49" cy="20.8" r="2.2"/>
		<circle class="st0" cx="60.6" cy="21.2" r="2.2"/>
		<circle class="st0" cx="142.2" cy="21.2" r="2.2"/>
		<circle class="st0" cx="118.9" cy="21.2" r="2.2"/>
		<circle class="st0" cx="107.2" cy="21.2" r="2.2"/>
		<circle class="st0" cx="95.6" cy="21.2" r="2.2"/>
		<circle class="st0" cx="72.3" cy="21" r="2.2"/>
		<circle class="st0" cx="83.9" cy="21.4" r="2.2"/>
		<circle class="st0" cx="153.8" cy="21.4" r="2.2"/>
		<circle class="st0" cx="130.5" cy="21.4" r="2.2"/>
	</g>
	<g>
		<path class="st0" d="M21.8,55.5C9.8,55.5,0,65.3,0,77.3s9.8,21.8,21.8,21.8s21.8-9.8,21.8-21.8S33.8,55.5,21.8,55.5z M21.8,94.5
			c-9.5,0-17.1-7.7-17.1-17.1s7.7-17.1,17.1-17.1s17.1,7.7,17.1,17.1S31.3,94.5,21.8,94.5z"/>
		<path class="st0" d="M181.7,55.5c-12,0-21.8,9.8-21.8,21.8s9.8,21.8,21.8,21.8s21.8-9.8,21.8-21.8S193.7,55.5,181.7,55.5z
			 M181.7,94.5c-9.5,0-17.1-7.7-17.1-17.1s7.7-17.1,17.1-17.1s17.1,7.7,17.1,17.1S191.2,94.5,181.7,94.5z"/>
		<circle class="st0" cx="48.9" cy="76.3" r="2.2"/>
		<circle class="st0" cx="60.6" cy="76.7" r="2.2"/>
		<circle class="st0" cx="142.1" cy="76.7" r="2.2"/>
		<circle class="st0" cx="118.8" cy="76.7" r="2.2"/>
		<circle class="st0" cx="107.2" cy="76.7" r="2.2"/>
		<circle class="st0" cx="95.5" cy="76.7" r="2.2"/>
		<circle class="st0" cx="72.2" cy="76.5" r="2.2"/>
		<circle class="st0" cx="83.9" cy="77" r="2.2"/>
		<circle class="st0" cx="153.8" cy="77" r="2.2"/>
		<circle class="st0" cx="130.5" cy="77" r="2.2"/>
	</g>
	<g>
		<path class="st0" d="M21.8,110.5c-12,0-21.8,9.8-21.8,21.8s9.8,21.8,21.8,21.8s21.8-9.8,21.8-21.8S33.8,110.5,21.8,110.5z
			 M21.8,149.5c-9.5,0-17.1-7.7-17.1-17.1s7.7-17.1,17.1-17.1s17.1,7.7,17.1,17.1S31.3,149.5,21.8,149.5z"/>
		<path class="st0" d="M181.7,110.5c-12,0-21.8,9.8-21.8,21.8s9.8,21.8,21.8,21.8s21.8-9.8,21.8-21.8S193.7,110.5,181.7,110.5z
			 M181.7,149.5c-9.5,0-17.1-7.7-17.1-17.1s7.7-17.1,17.1-17.1s17.1,7.7,17.1,17.1S191.2,149.5,181.7,149.5z"/>
		<circle class="st0" cx="48.9" cy="131.3" r="2.2"/>
		<circle class="st0" cx="60.6" cy="131.7" r="2.2"/>
		<circle class="st0" cx="142.1" cy="131.7" r="2.2"/>
		<circle class="st0" cx="118.8" cy="131.7" r="2.2"/>
		<circle class="st0" cx="107.2" cy="131.7" r="2.2"/>
		<circle class="st0" cx="95.5" cy="131.7" r="2.2"/>
		<circle class="st0" cx="72.2" cy="131.5" r="2.2"/>
		<circle class="st0" cx="83.9" cy="132" r="2.2"/>
		<circle class="st0" cx="153.8" cy="132" r="2.2"/>
		<circle class="st0" cx="130.5" cy="132" r="2.2"/>
	</g>
</g>
</svg>
