<?xml version="1.0" encoding="utf-8"?>
<!-- Generator: Adobe Illustrator 27.8.0, SVG Export Plug-In . SVG Version: 6.00 Build 0)  -->
<svg version="1.1" id="Layer_1" xmlns="http://www.w3.org/2000/svg" xmlns:xlink="http://www.w3.org/1999/xlink" x="0px" y="0px"
	 viewBox="0 0 160.9 153" style="enable-background:new 0 0 160.9 153;" xml:space="preserve">
<style type="text/css">
	.st0{fill:#187CAB;}
</style>
<g>
	<path class="st0" d="M27.4,32.9H5.5c-3,0-5.5-2.5-5.5-5.5V5.5C0,2.5,2.5,0,5.5,0h21.9c3,0,5.5,2.5,5.5,5.5v21.9
		C32.9,30.5,30.5,32.9,27.4,32.9z"/>
	<path class="st0" d="M155.4,33.9h-21.9c-3,0-5.5-2.5-5.5-5.5V6.5c0-3,2.5-5.5,5.5-5.5h21.9c3,0,5.5,2.5,5.5,5.5v21.9
		C160.9,31.5,158.5,33.9,155.4,33.9z"/>
	<path class="st0" d="M27.4,92.4H5.5c-3,0-5.5-2.5-5.5-5.5V65c0-3,2.5-5.5,5.5-5.5h21.9c3,0,5.5,2.5,5.5,5.5v21.9
		C32.9,89.9,30.5,92.4,27.4,92.4z"/>
	<path class="st0" d="M155.4,92.4h-21.9c-3,0-5.5-2.5-5.5-5.5V65c0-3,2.5-5.5,5.5-5.5h21.9c3,0,5.5,2.5,5.5,5.5v21.9
		C160.9,89.9,158.5,92.4,155.4,92.4z"/>
	<path class="st0" d="M27.4,152H5.5c-3,0-5.5-2.5-5.5-5.5v-21.9c0-3,2.5-5.5,5.5-5.5h21.9c3,0,5.5,2.5,5.5,5.5v21.9
		C32.9,149.5,30.5,152,27.4,152z"/>
	<path class="st0" d="M155.4,153h-21.9c-3,0-5.5-2.5-5.5-5.5v-21.9c0-3,2.5-5.5,5.5-5.5h21.9c3,0,5.5,2.5,5.5,5.5v21.9
		C160.9,150.5,158.5,153,155.4,153z"/>
	<rect x="52.8" y="56.6" class="st0" width="56.9" height="38.6"/>
</g>
<rect x="16.5" y="74.1" class="st0" width="128" height="5.1"/>
<path class="st0" d="M49.5,13H10.6c-2.9,0-5.3,1.9-6.1,4.6c0.4-0.1,0.7-0.1,1.1-0.1h39.4c3.4,0,6.2,2.8,6.2,6.2v105.8
	c0,3.4-2.8,6.2-6.2,6.2H5.5c-0.3,0-0.6,0-0.9-0.1c0.9,2.4,3.2,4.1,5.9,4.1h38.9c3.5,0,6.4-2.9,6.4-6.4V19.3C55.9,15.8,53,13,49.5,13
	z"/>
<path class="st0" d="M111.9,13.2h38.9c2.9,0,5.3,1.9,6.1,4.6c-0.4-0.1-0.7-0.1-1.1-0.1h-39.4c-3.4,0-6.2,2.8-6.2,6.2v105.8
	c0,3.4,2.8,6.2,6.2,6.2h39.4c0.3,0,0.6,0,0.9-0.1c-0.9,2.4-3.2,4.1-5.9,4.1h-38.9c-3.5,0-6.4-2.9-6.4-6.4V19.6
	C105.5,16.1,108.4,13.2,111.9,13.2z"/>
</svg>
