<svg id="PDF" xmlns="http://www.w3.org/2000/svg" xmlns:xlink="http://www.w3.org/1999/xlink" width="26.553" height="36.602" viewBox="0 0 26.553 36.602">
  <defs>
    <clipPath id="clip-path">
      <rect id="Rectangle_642" data-name="Rectangle 642" width="26.553" height="36.602" fill="none"/>
    </clipPath>
  </defs>
  <g id="Group_356" data-name="Group 356" clip-path="url(#clip-path)">
    <path id="Path_352" data-name="Path 352" d="M27.31,61.438a4.124,4.124,0,0,0-.892.077v5.7a3.644,3.644,0,0,0,.685.039A2.7,2.7,0,0,0,30.049,64.2a2.5,2.5,0,0,0-2.739-2.763" transform="translate(-14.568 -33.88)" fill="#187cab"/>
    <path id="Path_353" data-name="Path 353" d="M10.442,61.379a3.364,3.364,0,0,0-.813.077v2.57a3.009,3.009,0,0,0,.657.052c1.048,0,1.692-.529,1.692-1.421,0-.8-.555-1.279-1.537-1.279" transform="translate(-5.31 -33.848)" fill="#187cab"/>
    <path id="Path_354" data-name="Path 354" d="M26.547,8.771a.7.7,0,0,0-.17-.464L19.319.245l0-.005a.713.713,0,0,0-.142-.119.434.434,0,0,0-.049-.028.648.648,0,0,0-.14-.06L18.944.021A.657.657,0,0,0,18.779,0H1.435A1.438,1.438,0,0,0,0,1.435v33.73A1.439,1.439,0,0,0,1.435,36.6H25.118a1.437,1.437,0,0,0,1.435-1.437V8.852a.66.66,0,0,0-.007-.08M7.818,30.825a4.034,4.034,0,0,1-2.828.916,4.924,4.924,0,0,1-.671-.039v3.113H2.369V26.226a16.277,16.277,0,0,1,2.66-.181,4.184,4.184,0,0,1,2.662.7,2.547,2.547,0,0,1,.928,2.015,2.776,2.776,0,0,1-.8,2.068m8.307,2.957a6.242,6.242,0,0,1-4.016,1.123,17.391,17.391,0,0,1-2.236-.128V26.226a17.66,17.66,0,0,1,2.661-.181,5.608,5.608,0,0,1,3.566.931,3.851,3.851,0,0,1,1.472,3.282,4.413,4.413,0,0,1-1.447,3.525m8.062-6.057H20.84v1.988h3.126v1.6H20.84v3.5H18.865V26.11h5.321ZM1.435,24.37V1.435H18.061V8.78a.718.718,0,0,0,.718.717h6.339V24.37Z" transform="translate(0 0)" fill="#187cab"/>
    <path id="Path_355" data-name="Path 355" d="M24.768,21.474c-.042,0-1.053-.1-2.606-.1-.487,0-.976.009-1.46.028a77.128,77.128,0,0,1-6.921-5.894c.025-.142.04-.254.049-.34.177-1.871-.019-3.134-.584-3.755a1.427,1.427,0,0,0-1.479-.388,1.77,1.77,0,0,0-1.209,1.127c-.23.767.14,1.7,1.111,2.777.014.016.345.361.943.946-.389,1.854-1.407,5.858-1.9,7.78a10.1,10.1,0,0,0-2.875,2.223l-.049.056L7.756,26a2.319,2.319,0,0,0-.17,1.678,1.141,1.141,0,0,0,.685.649l.086.024a1.152,1.152,0,0,0,.214.016c.6,0,2.078-.314,2.87-3.234l.192-.741a23.486,23.486,0,0,1,8.733-1.9c1.29.957,2.572,1.835,3.816,2.612l.04.023a2.968,2.968,0,0,0,1.244.3A1.836,1.836,0,0,0,27.294,23.9l.013-.066a1.832,1.832,0,0,0-.405-1.453,3.224,3.224,0,0,0-2.134-.9M8.594,27.3a.057.057,0,0,1-.01-.021A1.307,1.307,0,0,1,8.7,26.53a8.4,8.4,0,0,1,1.617-1.386c-.608,1.971-1.495,2.141-1.724,2.152m3.865-13.1h0c-.934-1.041-.92-1.556-.871-1.73a.711.711,0,0,1,.459-.4c.187-.051.3-.042.4.07a3.856,3.856,0,0,1,.349,2.406c-.221-.221-.34-.345-.34-.345m-.482,8.864L11.993,23l0,0c.468-1.835,1.142-4.519,1.531-6.243l.014.012v-.007c1.256,1.182,3.182,2.912,5.487,4.711H19l.037.03a24.368,24.368,0,0,0-7.059,1.558m14.264.6c-.165.608-.484.69-.775.69a1.932,1.932,0,0,1-.739-.175c-.846-.531-1.712-1.107-2.586-1.728h.021c1.5,0,2.5.091,2.535.095a2.215,2.215,0,0,1,1.382.527.738.738,0,0,1,.161.59" transform="translate(-4.127 -6.048)" fill="#187cab"/>
  </g>
</svg>
