<svg xmlns="http://www.w3.org/2000/svg" width="26.688" height="30.5" viewBox="0 0 26.688 30.5">
  <path id="Path_77" data-name="Path 77" d="M38.672,19.42a1.191,1.191,0,0,1,1.191,1.191h0a1.191,1.191,0,0,1-2.383,0h0A1.191,1.191,0,0,1,38.672,19.42Zm3.276,1.191h0a1.191,1.191,0,0,0,2.383,0h0a1.191,1.191,0,0,0-2.383,0Zm4.468,0h0a1.191,1.191,0,0,0,2.383,0h0a1.191,1.191,0,0,0-2.383,0Zm4.527,0h0a1.191,1.191,0,0,0,2.383,0h0a1.191,1.191,0,0,0-2.383,0Zm5.361-.238V15.965a2.386,2.386,0,0,0-2.383-2.383H36.766a2.386,2.386,0,0,0-2.383,2.383v9.77a2.386,2.386,0,0,0,2.383,2.383H53.922A2.386,2.386,0,0,0,56.3,25.734a1.191,1.191,0,0,1,2.383,0A4.771,4.771,0,0,1,53.922,30.5H36.766A4.771,4.771,0,0,1,32,25.734v-9.77A4.771,4.771,0,0,1,36.766,11.2h1.427V7a7.15,7.15,0,0,1,14.3,0v4.2h1.432a4.771,4.771,0,0,1,4.766,4.766v4.408a1.191,1.191,0,0,1-2.383,0ZM40.576,11.2h9.531V7a4.768,4.768,0,0,0-9.531,0v4.2Z" transform="translate(-32)" fill="#187cab" opacity="0.4"/>
</svg>
