<?xml version="1.0" encoding="UTF-8"?>
<svg id="XLS" xmlns="http://www.w3.org/2000/svg" version="1.1" xmlns:xlink="http://www.w3.org/1999/xlink" viewBox="0 0 26.35 36.33">
  <!-- Generator: Adobe Illustrator 29.8.1, SVG Export Plug-In . SVG Version: 2.1.1 Build 2)  -->
  <defs>
    <style>
      .st0 {
        fill: #187cab;
      }

      .st1 {
        fill: #fff;
      }

      .st2 {
        fill: none;
      }

      .st3 {
        clip-path: url(#clippath);
      }
    </style>
    <clipPath id="clippath">
      <rect class="st2" width="26.35" height="36.33"/>
    </clipPath>
  </defs>
  <g class="st3">
    <g id="Group_355">
      <path id="Path_350" class="st0" d="M26.35,8.71c0-.17-.06-.33-.17-.46L19.17.24h0c-.04-.05-.09-.09-.15-.12-.01,0-.03-.02-.05-.03-.05-.02-.09-.04-.14-.06h-.04c-.05-.02-.11-.03-.16-.03H1.42C.64,0,0,.64,0,1.42v33.48c0,.79.64,1.42,1.42,1.43h23.51c.79,0,1.42-.64,1.42-1.43V8.78s0-.05,0-.08M1.42,24.19V1.42h16.5v7.29c0,.39.32.71.71.71h6.29v14.77H1.42Z"/>
      <path id="Path_351" class="st0" d="M14.5,22.85h-2.64v-12.17h2.64v12.17ZM6.82,6.44h2.64v16.42h-2.64V6.44ZM19.54,22.85h-2.65v-7.92h2.65v7.92Z"/>
    </g>
  </g>
  <g>
    <path class="st1" d="M3.83,30.91v3.17h-1.4v-7.94h2.42c1.11,0,1.92.19,2.46.58s.8.96.8,1.74c0,.99-.55,1.69-1.66,2.11l2.42,3.51h-1.59l-2.05-3.17h-1.38ZM3.83,29.84h.97c.65,0,1.12-.11,1.42-.34s.44-.56.44-1-.16-.77-.47-.97-.79-.29-1.43-.29h-.93v2.59Z"/>
    <path class="st1" d="M17.06,30.04c0,1.31-.39,2.31-1.18,3s-1.92,1.04-3.39,1.04h-2.4v-7.94h2.65c1.36,0,2.42.34,3.18,1.02s1.14,1.64,1.14,2.87ZM15.59,30.08c0-1.9-.96-2.85-2.88-2.85h-1.21v5.76h1c2.06,0,3.09-.97,3.09-2.91Z"/>
    <path class="st1" d="M18.9,34.08v-7.94h1.4v6.82h3.63v1.11h-5.03Z"/>
  </g>
</svg>