<?xml version="1.0" encoding="UTF-8"?>
<svg id="Layer_1" xmlns="http://www.w3.org/2000/svg" version="1.1" viewBox="0 0 684.45 684.45">
  <!-- Generator: Adobe Illustrator 29.8.1, SVG Export Plug-In . SVG Version: 2.1.1 Build 2)  -->
  <defs>
    <style>
      .st0 {
        fill: #187cab;
      }

      .st1 {
        fill: none;
      }
    </style>
  </defs>
  <path class="st1" d="M460.9,42.23H192.22v165.85c0,.46.4.87.87.87h298.27c.46,0,.87-.4.87-.87v-106.91h-31.32v-58.94Z"/>
  <path class="st1" d="M525.56,101.16v106.91c0,18.87-15.33,34.2-34.2,34.2H193.09c-18.87,0-34.2-15.33-34.2-34.2V42.23H58.88c-9.2,0-16.67,7.47-16.67,16.67v566.67c0,9.2,7.47,16.67,16.67,16.67h566.67c9.21,0,16.67-7.46,16.67-16.67V190.36c0-4.41-1.73-8.61-4.85-11.75l-84.59-85.06v7.61h-27.22ZM412.97,513.26s-.02.02-.02.03c-.46.46-.92.91-1.39,1.35-.11.11-.23.22-.34.33-.46.44-.92.87-1.39,1.29-.13.12-.26.24-.39.36-.51.47-1.03.92-1.55,1.38-.08.07-.16.14-.24.22-.57.49-1.14.98-1.72,1.45-.03.03-.06.05-.1.08-5.66,4.67-11.71,8.63-18.04,11.86-.02.01-.04.02-.06.03-.67.34-1.34.68-2.02,1-.1.05-.2.09-.29.14-.6.29-1.2.57-1.81.84-.19.08-.37.17-.56.25-.52.23-1.04.46-1.56.68-.28.12-.57.24-.86.36-.43.18-.85.35-1.28.52-.39.15-.77.31-1.16.45-.33.13-.66.25-1,.38-.48.18-.97.36-1.45.53-.24.09-.49.17-.73.26-.57.2-1.15.39-1.72.58-.16.05-.32.1-.48.16-.65.21-1.29.41-1.95.6-.1.03-.2.06-.29.09-.7.21-1.41.41-2.11.6-.05.01-.1.03-.15.04-.74.2-1.49.39-2.24.57-.02,0-.04.01-.06.02-.76.19-1.53.36-2.3.53-.01,0-.02,0-.03,0-.77.17-1.54.33-2.32.48-.02,0-.04,0-.06.01-.76.15-1.52.28-2.28.41-.05,0-.09.02-.14.02-.73.12-1.46.24-2.2.34-.09.01-.18.03-.27.04-.69.1-1.38.19-2.07.27-.16.02-.31.04-.47.05-.63.07-1.26.14-1.89.2-.24.02-.48.04-.71.06-.55.05-1.11.1-1.67.14-.35.03-.71.05-1.06.07-.45.03-.9.06-1.35.08-.54.03-1.07.04-1.61.06-.28,0-.55.02-.83.03-1.67.04-3.33.04-5,0-.35,0-.71-.03-1.06-.04-.46-.02-.91-.03-1.37-.05-.53-.03-1.07-.06-1.6-.1-.27-.02-.53-.03-.8-.05-.64-.05-1.29-.1-1.93-.16-.15-.01-.29-.02-.44-.04-.73-.07-1.45-.15-2.18-.23-.05,0-.11-.01-.16-.02-7.27-.87-14.3-2.52-21.01-4.87-.04-.02-.09-.03-.13-.05-.69-.24-1.38-.49-2.06-.75-.12-.05-.24-.09-.36-.14-.6-.23-1.21-.46-1.81-.71-.21-.08-.41-.17-.62-.25-.51-.21-1.02-.42-1.53-.64-.29-.13-.59-.25-.88-.38-.42-.18-.83-.37-1.25-.56-.37-.17-.74-.34-1.11-.52-.33-.16-.67-.32-1-.48-.44-.21-.88-.43-1.31-.65-.26-.13-.52-.26-.78-.4-.49-.25-.98-.51-1.47-.78-.2-.11-.41-.22-.61-.33-.53-.29-1.05-.58-1.57-.88-.17-.1-.33-.19-.5-.29-.54-.31-1.08-.63-1.62-.96-.15-.09-.3-.18-.44-.27-.54-.33-1.08-.67-1.62-1.01-.15-.09-.3-.19-.45-.29-.52-.34-1.04-.68-1.56-1.03-.17-.11-.33-.22-.5-.34-.49-.33-.98-.67-1.46-1.02-.2-.14-.4-.29-.6-.43-.44-.32-.88-.64-1.32-.96-.25-.19-.5-.38-.76-.57-.38-.29-.75-.57-1.13-.87-.33-.26-.66-.52-.99-.79-.29-.23-.58-.46-.87-.7-.44-.36-.88-.73-1.31-1.1-.17-.15-.35-.29-.52-.44-3.84-3.3-7.42-6.88-10.72-10.72-.1-.12-.21-.25-.31-.37-.42-.49-.83-.98-1.23-1.48-.19-.24-.38-.48-.58-.72-.31-.38-.61-.76-.91-1.15-.25-.32-.5-.65-.75-.98-.23-.3-.46-.61-.69-.91-.29-.39-.58-.79-.86-1.18-.18-.25-.36-.49-.53-.74-.31-.44-.62-.89-.92-1.33-.14-.21-.29-.42-.43-.63-.32-.48-.63-.96-.95-1.44-.12-.19-.25-.38-.37-.58-.32-.5-.63-.99-.93-1.49-.12-.19-.23-.38-.35-.57-.3-.5-.6-1-.89-1.51-.12-.2-.24-.41-.35-.61-.28-.49-.55-.98-.82-1.47-.13-.24-.26-.47-.39-.71-.25-.46-.49-.92-.73-1.38-.15-.29-.3-.58-.44-.86-.21-.41-.41-.82-.61-1.24-.17-.35-.34-.71-.51-1.07-.17-.35-.33-.7-.49-1.05-.2-.43-.39-.86-.58-1.3-.12-.28-.25-.56-.37-.84-.22-.51-.44-1.03-.65-1.54-.08-.2-.17-.41-.25-.61-.24-.6-.47-1.2-.7-1.8-.05-.12-.1-.25-.14-.37-.25-.68-.5-1.35-.74-2.04-.02-.05-.04-.11-.06-.16-2.09-5.98-3.63-12.21-4.55-18.65,0,0,0-.02,0-.03-.11-.77-.21-1.53-.3-2.31,0-.07-.02-.14-.02-.22-.08-.71-.16-1.42-.23-2.13-.02-.16-.03-.32-.04-.48-.06-.63-.11-1.26-.16-1.89-.02-.27-.03-.54-.05-.81-.03-.53-.07-1.06-.1-1.6-.02-.42-.03-.84-.05-1.25-.01-.39-.03-.79-.04-1.18-.02-.83-.03-1.65-.03-2.48h0s0,0,0,0c0-25.59,9.77-51.18,29.29-70.71s46.79-29.92,73.21-29.26c.28,0,.56.02.84.03.54.02,1.07.03,1.61.06.45.02.89.05,1.33.08.36.02.72.04,1.08.07.55.04,1.1.09,1.65.14.24.02.49.04.73.06.63.06,1.25.13,1.88.2.16.02.32.04.49.06.68.08,1.36.17,2.04.27.1.01.21.03.31.04.72.1,1.44.22,2.16.34.06.01.13.02.19.03.75.13,1.49.26,2.23.4.04,0,.08.02.12.02.75.15,1.51.3,2.25.46.03,0,.07.01.1.02.75.16,1.49.34,2.23.52.05.01.1.02.15.04.72.18,1.44.36,2.15.55.08.02.16.04.24.07.68.18,1.35.37,2.02.57.13.04.27.08.4.12.61.18,1.22.37,1.83.56.21.07.41.13.62.2.53.17,1.06.35,1.58.53.29.1.59.21.88.31.43.16.87.31,1.3.47.39.14.77.29,1.16.44.33.13.66.26.99.39.49.19.97.39,1.46.6.22.09.45.19.67.28.58.25,1.16.5,1.74.76.12.06.25.11.37.17.67.3,1.34.62,2.01.94.03.01.05.02.08.04,9.88,4.76,19.14,11.22,27.33,19.41.03.03.05.06.08.08,18.05,18.09,29.21,43.06,29.21,70.62s-11.18,52.59-29.26,70.69Z"/>
  <path class="st1" d="M387.37,393.53c-.11-.1-.22-.21-.33-.32-.62-.56-1.25-1.1-1.89-1.64-.19-.16-.38-.33-.57-.49-.65-.54-1.32-1.06-2-1.57-.18-.14-.37-.29-.55-.43-.68-.51-1.38-1-2.08-1.48-.19-.13-.37-.26-.56-.39-.69-.47-1.4-.91-2.11-1.36-.21-.13-.42-.27-.63-.39-.68-.41-1.38-.81-2.08-1.2-.26-.14-.51-.29-.77-.43-.65-.35-1.32-.69-1.99-1.02-.32-.16-.64-.32-.96-.48-.61-.29-1.22-.56-1.84-.83-.4-.17-.79-.35-1.2-.52-.55-.23-1.11-.44-1.66-.66-.48-.18-.95-.37-1.44-.54-.49-.18-.99-.34-1.49-.5-.55-.18-1.1-.37-1.65-.53-.45-.13-.9-.26-1.35-.38-.61-.17-1.21-.34-1.82-.49-.42-.11-.85-.2-1.27-.29-.64-.15-1.27-.29-1.91-.42-.43-.09-.87-.16-1.31-.23-.63-.11-1.26-.23-1.89-.32-.5-.07-1-.13-1.5-.19-.57-.07-1.15-.15-1.72-.21-.66-.06-1.32-.11-1.99-.15-.42-.03-.84-.07-1.26-.09-1.1-.05-2.21-.08-3.32-.08,0,0,0,0,0,0-17.06,0-34.11,6.51-47.13,19.53s-19.53,30.08-19.53,47.14c0,0,0,0,0,0,0,1.11.03,2.21.08,3.3.02.5.07,1,.11,1.49.04.58.08,1.17.13,1.75.06.65.15,1.3.23,1.94.05.42.1.84.16,1.26.11.72.23,1.43.36,2.14.06.35.12.7.19,1.04.14.74.31,1.47.48,2.2.07.32.14.64.22.96.18.72.38,1.44.58,2.16.09.33.18.66.28.99.21.68.43,1.37.66,2.04.12.36.24.72.36,1.07.22.63.47,1.26.71,1.89.16.4.31.8.47,1.19.24.57.49,1.14.74,1.71.19.43.39.87.59,1.3.25.52.51,1.04.77,1.56.23.46.46.93.71,1.38.26.49.53.97.81,1.45.27.47.53.94.8,1.4.29.48.59.95.89,1.42.28.44.56.89.85,1.33.34.51.7,1.01,1.05,1.51.27.38.53.77.81,1.14.44.6.91,1.19,1.37,1.77.21.26.41.53.62.79.68.83,1.37,1.64,2.09,2.44.01.01.02.02.03.04.76.84,1.55,1.67,2.36,2.48s1.63,1.59,2.47,2.35c.06.05.12.11.19.16.75.67,1.51,1.33,2.28,1.96.3.25.61.48.91.72.54.43,1.09.86,1.64,1.27.41.31.84.6,1.26.89.46.33.92.66,1.39.97.47.31.94.61,1.42.91.44.28.88.56,1.33.83.49.29.98.57,1.47.85.46.26.91.52,1.37.77.47.25.96.49,1.44.74.5.25,1,.51,1.51.74.44.21.89.41,1.34.61.56.25,1.12.5,1.68.73.4.16.8.32,1.21.48.62.24,1.25.48,1.88.71.35.13.71.24,1.07.36.68.23,1.36.46,2.05.66.32.1.65.18.97.27.72.21,1.45.41,2.18.59.31.08.62.14.93.21.74.17,1.48.34,2.23.49.33.07.67.12,1,.18.72.13,1.45.26,2.18.37.41.06.82.1,1.23.16.66.08,1.32.17,1.97.24.58.06,1.17.09,1.75.13.49.04.99.08,1.48.11,1.1.05,2.2.08,3.31.08s2.22-.03,3.32-.08c.43-.02.85-.06,1.28-.09.66-.04,1.32-.09,1.97-.15.58-.06,1.17-.14,1.75-.21.49-.06.98-.11,1.47-.19.65-.1,1.29-.21,1.93-.33.42-.07.84-.14,1.26-.23.66-.13,1.31-.28,1.97-.43.4-.09.81-.18,1.21-.28.63-.16,1.26-.33,1.89-.51.42-.12.85-.23,1.27-.36.58-.18,1.16-.37,1.74-.56.47-.15.93-.31,1.39-.47.52-.18,1.03-.38,1.54-.58.52-.2,1.04-.4,1.55-.61.44-.18.88-.38,1.31-.57.58-.25,1.15-.51,1.72-.78.37-.17.73-.36,1.1-.54.62-.31,1.24-.62,1.85-.95.31-.17.62-.34.92-.52.65-.36,1.29-.72,1.92-1.11.27-.16.54-.34.81-.51.65-.4,1.3-.81,1.93-1.24.26-.18.52-.36.78-.55.63-.43,1.25-.87,1.86-1.32.29-.21.56-.44.85-.66.57-.44,1.14-.88,1.7-1.34.35-.29.7-.6,1.05-.9.47-.41.95-.81,1.41-1.22.59-.53,1.16-1.09,1.73-1.64,12.43-12.11,20.16-29.02,20.16-47.76s-8.29-36.85-21.52-49.04Z"/>
  <path class="st0" d="M412.94,371.86c-8.19-8.19-17.45-14.66-27.33-19.41-.03-.01-.05-.02-.08-.04-.67-.32-1.34-.63-2.01-.94-.12-.06-.25-.11-.37-.17-.58-.26-1.16-.51-1.74-.76-.22-.1-.45-.19-.67-.28-.49-.2-.97-.4-1.46-.6-.33-.13-.66-.26-.99-.39-.39-.15-.77-.3-1.16-.44-.43-.16-.87-.32-1.3-.47-.29-.1-.58-.21-.88-.31-.53-.18-1.05-.36-1.58-.53-.21-.07-.41-.14-.62-.2-.61-.19-1.22-.38-1.83-.56-.13-.04-.27-.08-.4-.12-.67-.2-1.34-.39-2.02-.57-.08-.02-.16-.04-.24-.07-.71-.19-1.43-.38-2.15-.55-.05-.01-.1-.02-.15-.04-.74-.18-1.48-.35-2.23-.52-.03,0-.07-.01-.1-.02-.75-.16-1.5-.32-2.25-.46-.04,0-.08-.02-.12-.02-.74-.14-1.48-.28-2.23-.4-.06-.01-.13-.02-.19-.03-.72-.12-1.43-.23-2.16-.34-.1-.02-.21-.03-.31-.04-.68-.1-1.36-.19-2.04-.27-.16-.02-.32-.04-.49-.06-.62-.07-1.25-.14-1.88-.2-.24-.02-.49-.04-.73-.06-.55-.05-1.1-.1-1.65-.14-.36-.03-.72-.05-1.08-.07-.44-.03-.89-.06-1.33-.08-.54-.03-1.07-.04-1.61-.06-.28,0-.56-.02-.84-.03-26.42-.66-53.05,9.1-73.21,29.26s-29.29,45.12-29.29,70.71c0,0,0,0,0,0h0c0,.83.01,1.65.03,2.48,0,.39.03.79.04,1.18.02.42.03.84.05,1.25.03.53.06,1.07.1,1.6.02.27.03.54.05.81.05.63.1,1.26.16,1.89.01.16.03.32.04.48.07.71.15,1.42.23,2.13,0,.07.02.14.02.22.09.77.19,1.54.3,2.31,0,0,0,.02,0,.03.93,6.44,2.46,12.67,4.55,18.65.02.05.04.11.06.16.24.68.49,1.36.74,2.04.05.12.09.25.14.37.23.6.46,1.2.7,1.8.08.2.17.41.25.61.21.52.43,1.03.65,1.54.12.28.24.56.37.84.19.43.39.87.58,1.3.16.35.33.7.49,1.05.17.36.34.71.51,1.07.2.41.41.83.61,1.24.15.29.29.58.44.86.24.46.48.92.73,1.38.13.24.26.48.39.71.27.49.54.98.82,1.47.12.2.23.41.35.61.29.5.59,1.01.89,1.51.11.19.23.38.35.57.31.5.62,1,.93,1.49.12.19.25.38.37.58.31.48.63.96.95,1.44.14.21.29.42.43.63.3.45.61.89.92,1.33.18.25.35.5.53.74.28.4.57.79.86,1.18.23.31.46.61.69.91.25.33.5.65.75.98.3.39.61.77.91,1.15.19.24.38.48.58.72.41.5.82.99,1.23,1.48.1.12.21.25.31.37,3.3,3.84,6.88,7.42,10.72,10.72.17.15.35.29.52.44.44.37.87.74,1.31,1.1.29.24.58.47.87.7.33.26.66.53.99.79.37.29.75.58,1.13.87.25.19.5.38.76.57.44.33.88.65,1.32.96.2.14.4.29.6.43.49.34.97.68,1.46,1.02.17.11.33.23.5.34.52.35,1.04.69,1.56,1.03.15.1.3.19.45.29.54.34,1.08.68,1.62,1.01.15.09.29.18.44.27.54.33,1.08.65,1.62.96.17.1.33.19.5.29.52.3,1.05.59,1.57.88.2.11.41.22.61.33.49.26.98.52,1.47.78.26.13.52.27.78.4.44.22.87.44,1.31.65.33.16.67.32,1,.48.37.17.74.35,1.11.52.41.19.83.38,1.25.56.29.13.58.26.88.38.51.22,1.01.43,1.53.64.21.08.41.17.62.25.6.24,1.2.48,1.81.71.12.05.24.09.36.14.68.26,1.37.51,2.06.75.04.02.09.03.13.05,6.71,2.35,13.74,4,21.01,4.87.05,0,.11.01.16.02.72.09,1.45.16,2.18.23.15.01.29.03.44.04.64.06,1.28.11,1.93.16.27.02.53.03.8.05.53.03,1.06.07,1.6.1.46.02.91.04,1.37.05.35.01.71.03,1.06.04,1.67.04,3.33.04,5,0,.28,0,.55-.02.83-.03.54-.02,1.07-.03,1.61-.06.45-.02.9-.05,1.35-.08.35-.02.71-.04,1.06-.07.56-.04,1.11-.09,1.67-.14.24-.02.48-.04.71-.06.63-.06,1.26-.13,1.89-.2.16-.02.31-.03.47-.05.69-.08,1.38-.18,2.07-.27.09-.01.18-.03.27-.04.74-.11,1.47-.22,2.2-.34.05,0,.09-.02.14-.02.76-.13,1.52-.27,2.28-.41.02,0,.04,0,.06-.01.78-.15,1.55-.31,2.32-.48.01,0,.02,0,.03,0,.77-.17,1.54-.35,2.3-.53.02,0,.04-.01.06-.02.75-.18,1.49-.37,2.24-.57.05-.01.1-.03.15-.04.71-.19,1.41-.39,2.11-.6.1-.03.2-.06.29-.09.65-.19,1.3-.39,1.95-.6.16-.05.32-.1.48-.16.58-.19,1.15-.38,1.72-.58.24-.08.49-.17.73-.26.49-.17.97-.35,1.45-.53.33-.12.66-.25,1-.38.39-.15.78-.3,1.16-.45.43-.17.85-.35,1.28-.52.29-.12.57-.24.86-.36.52-.22,1.04-.45,1.56-.68.19-.08.37-.17.56-.25.6-.27,1.21-.56,1.81-.84.1-.05.2-.09.29-.14.68-.33,1.35-.66,2.02-1,.02-.01.04-.02.06-.03,6.33-3.24,12.38-7.19,18.04-11.86.03-.03.06-.05.1-.08.58-.48,1.15-.96,1.72-1.45.08-.07.16-.14.24-.22.52-.45,1.04-.91,1.55-1.38.13-.12.26-.24.39-.36.47-.43.93-.86,1.39-1.29.12-.11.23-.22.34-.33.46-.45.93-.89,1.39-1.35,0,0,.02-.02.02-.03,18.08-18.09,29.26-43.08,29.26-70.69s-11.16-52.53-29.21-70.62c-.03-.03-.05-.06-.08-.08ZM388.73,490.33c-.57.56-1.14,1.11-1.73,1.64-.46.42-.94.82-1.41,1.22-.35.3-.7.61-1.05.9-.56.46-1.13.9-1.7,1.34-.28.22-.56.44-.85.66-.61.45-1.23.89-1.86,1.32-.26.18-.52.37-.78.55-.63.43-1.28.83-1.93,1.24-.27.17-.54.34-.81.51-.63.38-1.28.75-1.92,1.11-.31.17-.61.35-.92.52-.61.33-1.23.64-1.85.95-.37.18-.73.37-1.1.54-.57.27-1.14.52-1.72.78-.44.19-.87.39-1.31.57-.51.21-1.03.41-1.55.61-.51.2-1.02.4-1.54.58-.46.16-.93.32-1.39.47-.58.19-1.16.39-1.74.56-.42.13-.85.24-1.27.36-.63.18-1.26.35-1.89.51-.4.1-.81.19-1.21.28-.65.15-1.31.3-1.97.43-.42.08-.84.15-1.26.23-.64.11-1.29.23-1.93.33-.49.07-.98.13-1.47.19-.58.07-1.17.15-1.75.21-.65.06-1.31.11-1.97.15-.43.03-.85.07-1.28.09-1.1.05-2.21.08-3.32.08s-2.21-.03-3.31-.08c-.5-.02-.99-.07-1.48-.11-.59-.04-1.17-.08-1.75-.13-.66-.06-1.32-.15-1.97-.24-.41-.05-.82-.1-1.23-.16-.73-.11-1.45-.24-2.18-.37-.33-.06-.67-.11-1-.18-.75-.15-1.49-.32-2.23-.49-.31-.07-.62-.14-.93-.21-.73-.18-1.46-.38-2.18-.59-.32-.09-.65-.18-.97-.27-.69-.21-1.37-.43-2.05-.66-.36-.12-.72-.24-1.07-.36-.63-.22-1.25-.47-1.88-.71-.4-.16-.81-.31-1.21-.48-.56-.23-1.12-.48-1.68-.73-.45-.2-.9-.4-1.34-.61-.51-.24-1-.49-1.51-.74-.48-.24-.96-.48-1.44-.74-.46-.25-.92-.51-1.37-.77-.49-.28-.99-.56-1.47-.85-.45-.27-.88-.55-1.33-.83-.48-.3-.95-.6-1.42-.91-.47-.31-.93-.64-1.39-.97-.42-.3-.84-.59-1.26-.89-.55-.41-1.1-.84-1.64-1.27-.3-.24-.61-.47-.91-.72-.77-.63-1.53-1.29-2.28-1.96-.06-.05-.12-.11-.19-.16-.84-.76-1.66-1.54-2.47-2.35s-1.6-1.64-2.36-2.48c-.01-.01-.02-.02-.03-.04-.72-.8-1.42-1.61-2.09-2.44-.21-.26-.41-.53-.62-.79-.47-.59-.93-1.17-1.37-1.77-.28-.38-.54-.76-.81-1.14-.35-.5-.71-1-1.05-1.51-.29-.44-.57-.88-.85-1.33-.3-.47-.6-.94-.89-1.42-.28-.46-.54-.93-.8-1.4-.27-.48-.55-.96-.81-1.45-.24-.46-.47-.92-.71-1.38-.26-.52-.52-1.03-.77-1.56-.2-.43-.39-.87-.59-1.3-.25-.57-.51-1.14-.74-1.71-.16-.39-.31-.79-.47-1.19-.24-.63-.49-1.25-.71-1.89-.13-.36-.24-.71-.36-1.07-.23-.68-.45-1.36-.66-2.04-.1-.33-.19-.66-.28-.99-.2-.72-.4-1.43-.58-2.16-.08-.32-.15-.64-.22-.96-.17-.73-.34-1.46-.48-2.2-.07-.35-.12-.7-.19-1.04-.13-.71-.26-1.42-.36-2.14-.06-.42-.11-.84-.16-1.26-.08-.65-.17-1.29-.23-1.94-.06-.58-.09-1.17-.13-1.75-.04-.5-.08-.99-.11-1.49-.05-1.1-.08-2.2-.08-3.3,0,0,0,0,0,0,0-17.06,6.51-34.12,19.53-47.14s30.07-19.53,47.13-19.53c0,0,0,0,0,0,1.11,0,2.22.03,3.32.08.42.02.84.06,1.26.09.66.05,1.33.09,1.99.15.58.06,1.15.13,1.72.21.5.06,1,.12,1.5.19.63.09,1.26.21,1.89.32.44.08.87.15,1.31.23.64.13,1.28.27,1.91.42.42.1.85.19,1.27.29.61.15,1.22.32,1.82.49.45.13.9.25,1.35.38.55.17,1.1.35,1.65.53.5.17,1,.33,1.49.5.48.17.96.36,1.44.54.56.21,1.11.43,1.66.66.4.17.8.34,1.2.52.62.27,1.23.54,1.84.83.32.15.64.32.96.48.67.33,1.33.66,1.99,1.02.26.14.51.29.77.43.7.39,1.4.78,2.08,1.2.21.13.42.26.63.39.71.44,1.42.89,2.11,1.36.19.13.37.26.56.39.7.48,1.4.97,2.08,1.48.19.14.37.29.55.43.67.51,1.34,1.03,2,1.57.19.16.38.33.57.49.64.54,1.27,1.08,1.89,1.64.11.1.22.21.33.32,13.23,12.18,21.52,29.64,21.52,49.04s-7.73,35.65-20.16,47.76Z"/>
  <path class="st0" d="M660.99,155.11l-108.22-108.83-22.51-22.64c-9.39-9.44-22.15-14.75-35.45-14.75H58.88c-27.6,0-50,22.4-50,50v566.67c0,27.6,22.4,50,50,50h566.67c27.63,0,50-22.39,50-50V190.36c0-13.22-5.22-25.87-14.55-35.25ZM192.22,42.23h300v165.85c0,.46-.4.87-.87.87H193.09c-.46,0-.87-.4-.87-.87V42.23ZM642.21,625.56c0,9.21-7.45,16.67-16.67,16.67H58.88c-9.2,0-16.67-7.47-16.67-16.67V58.89c0-9.2,7.47-16.67,16.67-16.67h100.01v165.85c0,18.87,15.33,34.2,34.2,34.2h298.27c18.87,0,34.2-15.33,34.2-34.2V66.18l27.22,27.37,84.59,85.06c3.12,3.13,4.85,7.34,4.85,11.75v435.2Z"/>
</svg>