<svg id="Group_4079" data-name="Group 4079" xmlns="http://www.w3.org/2000/svg" xmlns:xlink="http://www.w3.org/1999/xlink" width="28" height="28.016" viewBox="0 0 28 28.016">
  <defs>
    <clipPath id="clip-path">
      <rect id="Rectangle_1220" data-name="Rectangle 1220" width="28" height="28.016" fill="none"/>
    </clipPath>
  </defs>
  <g id="Group_4079-2" data-name="Group 4079" clip-path="url(#clip-path)">
    <path id="Path_884" data-name="Path 884" d="M27.456,24.827l-7.112-7.155A11.189,11.189,0,0,0,11.206,0a11.206,11.206,0,0,0,0,22.413,11.116,11.116,0,0,0,6.465-2.069l7.154,7.111a1.767,1.767,0,0,0,1.293.56,1.7,1.7,0,0,0,1.293-.56,1.811,1.811,0,0,0,.043-2.629M11.206,20A8.793,8.793,0,1,1,20,11.206,8.8,8.8,0,0,1,11.206,20" transform="translate(0 0)" fill="rgba(102,102,102,0.5)"/>
  </g>
</svg>
