<svg xmlns="http://www.w3.org/2000/svg" width="30" height="30" viewBox="0 0 30 30">
  <path id="Path_78" data-name="Path 78" d="M112.254,112.313a1.172,1.172,0,1,1,1.172-1.172A1.172,1.172,0,0,1,112.254,112.313Zm3.849-5.121a3.158,3.158,0,0,0-2.881-1.852h-3.662a3.1,3.1,0,0,0-2.931,1.981c-.062.16-.137.362-.215.6H98.739a1.172,1.172,0,0,0-.841.356l-2.013,2.073a1.172,1.172,0,0,0,.005,1.638l2.051,2.087a1.172,1.172,0,0,0,.836.35h3.809a1.172,1.172,0,1,0,0-2.344H99.268l-.9-.92.871-.9h8.056a1.172,1.172,0,0,0,1.138-.893,9.684,9.684,0,0,1,.386-1.207.768.768,0,0,1,.747-.478h3.657a.8.8,0,0,1,.744.465,7.568,7.568,0,0,1,.693,2.987,7.793,7.793,0,0,1-.688,3.041.8.8,0,0,1-.736.48h-3.7a.834.834,0,0,1-.756-.519,7.769,7.769,0,0,1-.363-1.16,1.172,1.172,0,0,0-2.279.546,10.086,10.086,0,0,0,.476,1.508,3.161,3.161,0,0,0,2.92,1.969h3.706a3.142,3.142,0,0,0,2.882-1.887A10.144,10.144,0,0,0,117,111.13,9.923,9.923,0,0,0,116.1,107.192Zm-20.226,8.636A1.172,1.172,0,0,1,94.7,117H90.556a3.56,3.56,0,0,1-3.48-4.294,15.239,15.239,0,0,1,10.157-11.356,7.969,7.969,0,1,1,9.539,0q.294.1.586.206a1.172,1.172,0,0,1-.824,2.194,12.835,12.835,0,0,0-4.233-.815c-.1,0-.2.006-.3.006s-.2,0-.3-.006A12.948,12.948,0,0,0,89.37,113.184a1.224,1.224,0,0,0,.248,1.026,1.19,1.19,0,0,0,.937.446H94.7A1.172,1.172,0,0,1,95.877,115.828Zm5.848-15.241c.092,0,.183,0,.275,0s.183,0,.274,0a5.625,5.625,0,1,0-.549,0Z" transform="translate(-87 -87)" fill="#187cab" opacity="0.4"/>
</svg>
