<svg id="View" xmlns="http://www.w3.org/2000/svg" xmlns:xlink="http://www.w3.org/1999/xlink" width="31.885" height="19.53" viewBox="0 0 31.885 19.53">
  <defs>
    <clipPath id="clip-path">
      <rect id="Rectangle_201" data-name="Rectangle 201" width="31.885" height="19.53" fill="#187cab"/>
    </clipPath>
  </defs>
  <g id="Group_307" data-name="Group 307">
    <g id="Group_306" data-name="Group 306" transform="translate(0 0)" clip-path="url(#clip-path)">
      <path id="Path_99" data-name="Path 99" d="M70.272,102.848c-8.583,0-14.763-8.87-15.022-9.246a.522.522,0,0,1,.02-.618c.292-.369,7.245-9.074,15.584-9.074,9.354,0,15.355,8.733,15.607,9.1a.524.524,0,0,1,0,.59c-.249.356-6.171,8.758-15.579,9.228-.2.01-.407.015-.608.015ZM56.339,93.327c1.214,1.613,7.062,8.837,14.49,8.466,7.94-.4,13.422-7.006,14.557-8.488-1.132-1.518-6.675-8.351-14.531-8.351-7,0-13.211,6.841-14.516,8.374Zm0,0" transform="translate(-55.158 -83.91)" fill="#187cab"/>
    </g>
  </g>
  <path id="Path_100" data-name="Path 100" d="M108.108,114.182a4.771,4.771,0,1,1,4.774-4.769,4.779,4.779,0,0,1-4.774,4.769Zm0,0" transform="translate(-92.411 -99.941)" fill="#187cab"/>
  <path id="Path_101" data-name="Path 101" d="M102.2,110.012a6.5,6.5,0,1,1,6.5-6.5,6.512,6.512,0,0,1-6.5,6.5Zm0-11.965a5.461,5.461,0,1,0,5.464,5.459,5.466,5.466,0,0,0-5.464-5.459Zm0,0" transform="translate(-86.508 -94.039)" fill="#187cab"/>
</svg>
