<?xml version="1.0" encoding="UTF-8"?>
<svg id="XLS" xmlns="http://www.w3.org/2000/svg" version="1.1" xmlns:xlink="http://www.w3.org/1999/xlink" viewBox="0 0 26.35 36.33">
  <!-- Generator: Adobe Illustrator 29.8.1, SVG Export Plug-In . SVG Version: 2.1.1 Build 2)  -->
  <defs>
    <style>
      .st0 {
        fill: #187cab;
      }

      .st1 {
        fill: none;
      }

      .st2 {
        clip-path: url(#clippath);
      }
    </style>
    <clipPath id="clippath">
      <rect class="st1" width="26.35" height="36.33"/>
    </clipPath>
  </defs>
  <g class="st2">
    <g id="Group_355">
      <path id="Path_350" class="st0" d="M26.35,8.71c0-.17-.06-.33-.17-.46L19.17.24h0c-.04-.05-.09-.09-.15-.12-.01,0-.03-.02-.05-.03-.05-.02-.09-.04-.14-.06h-.04c-.05-.02-.11-.03-.16-.03H1.42C.64,0,0,.64,0,1.42v33.48c0,.79.64,1.42,1.42,1.43h23.51c.79,0,1.42-.64,1.42-1.43V8.78s0-.05,0-.08M8.28,34.51l-.8-1.6c-.33-.62-.54-1.08-.79-1.59h-.03c-.18.51-.41.97-.68,1.59l-.74,1.6h-2.28l2.56-4.47-2.47-4.37h2.3l.77,1.61c.26.54.46.97.67,1.47h.03c.21-.56.38-.96.6-1.47l.75-1.61h2.28l-2.49,4.31,2.62,4.52h-2.31ZM17.18,34.51h-5.52v-8.84h2.01v7.16h3.51v1.68ZM20.52,34.64c-.86,0-1.72-.17-2.5-.54l.41-1.65c.69.35,1.44.54,2.22.55.92,0,1.4-.38,1.4-.96s-.42-.87-1.48-1.25c-1.47-.51-2.43-1.32-2.43-2.61,0-1.51,1.26-2.66,3.34-2.66.77-.01,1.54.14,2.26.44l-.44,1.61c-.58-.28-1.21-.42-1.85-.42-.86,0-1.28.39-1.28.85,0,.56.5.81,1.64,1.25,1.56.58,2.3,1.39,2.3,2.64,0,1.48-1.14,2.74-3.57,2.74M1.42,24.19V1.42h16.5v7.29c0,.39.32.71.71.71h6.29v14.77H1.42Z"/>
      <path id="Path_351" class="st0" d="M15.28,9.13H3.47v11.04h18.07v-11.04h-6.26ZM15.28,14.47h-5.55v-2.31h5.55v2.31ZM3.83,9.48h5.55v2.32H3.83v-2.32ZM3.83,12.15h5.55v2.32H3.83v-2.32ZM3.83,14.82h5.55v2.32H3.83v-2.32ZM3.83,17.5h5.55v2.32H3.83v-2.32ZM9.73,17.5h5.55v2.32h-5.55v-2.32ZM21.19,19.81h-5.55v-2.31h5.55v2.31ZM21.19,14.47h-5.55v-2.31h5.55v2.31ZM15.64,9.48h5.55v2.32h-5.55v-2.32Z"/>
    </g>
  </g>
</svg>